<?xml version="1.0" encoding="UTF-8"?>
<svg version="1.1" xmlns="http://www.w3.org/2000/svg" width="768" height="768">
<path d="M0 0 C1.02577148 0.49016602 1.02577148 0.49016602 2.07226562 0.99023438 C6.76062614 3.24083003 11.39321264 5.58712337 16 8 C16.77311523 8.40444336 17.54623047 8.80888672 18.34277344 9.22558594 C42.65888182 22.04435152 65.38975891 37.79948448 86 56 C86.84433594 56.74507813 87.68867187 57.49015625 88.55859375 58.2578125 C91.05583382 60.48734843 93.52851785 62.74196403 96 65 C97.00484479 65.90014558 98.01007228 66.79986407 99.015625 67.69921875 C111.0515561 78.54037966 121.91865991 90.32381063 132 103 C132.88204619 104.05771788 133.76628057 105.11361367 134.65234375 106.16796875 C148.18391073 122.43080489 159.79564814 140.48232655 170 159 C170.46325684 159.83756836 170.92651367 160.67513672 171.40380859 161.53808594 C217.84218012 246.21892278 229.57155685 347.63089886 202.984375 447.63671875 C189.57144018 493.46424605 168.53144528 536.3777478 139 574 C138.37222656 574.80824219 137.74445312 575.61648438 137.09765625 576.44921875 C123.14286014 594.17095369 107.9905746 611.13885098 91 626 C89.95045562 626.93612481 88.90097845 627.87232497 87.8515625 628.80859375 C73.57636346 641.41254998 58.14628429 652.9014271 42 663 C41.23091309 663.48114258 40.46182617 663.96228516 39.66943359 664.45800781 C-37.14398593 712.04844185 -127.69039023 730.71993965 -217 718 C-217.96873047 717.86223145 -218.93746094 717.72446289 -219.93554688 717.58251953 C-299.09167547 705.89821045 -373.2662478 667.39562387 -429.5246582 610.73608398 C-431.32215805 608.92778392 -433.13022316 607.13054023 -434.93945312 605.33398438 C-441.75142421 598.53020515 -448.05151407 591.58067834 -454 584 C-455.02444313 582.74502245 -456.05145715 581.49213526 -457.08203125 580.2421875 C-469.48421705 565.01225011 -480.18614386 549.00617963 -490 532 C-490.44617676 531.23010742 -490.89235352 530.46021484 -491.35205078 529.66699219 C-504.49368091 506.87639361 -514.66997897 482.95165319 -522.7109375 457.91015625 C-523.54916723 455.30175795 -524.47613549 452.7557178 -525.48046875 450.20703125 C-555.44924263 371.13986498 -542.7257334 266.79952 -509.12188721 191.01977539 C-501.99757339 175.23700208 -494.40493924 159.56216057 -485 145 C-484.45988281 144.16291504 -483.91976562 143.32583008 -483.36328125 142.46337891 C-476.59668067 132.04273932 -469.67481999 121.7775104 -462 112 C-461.37222656 111.19175781 -460.74445313 110.38351563 -460.09765625 109.55078125 C-452.7346316 100.20019166 -445.13819799 90.81027754 -436.55078125 82.55078125 C-434.88209941 80.88209941 -433.38954812 79.12185068 -431.875 77.3125 C-426.73859696 71.37710093 -420.83777322 66.22637941 -415 61 C-414.42749512 60.48276367 -413.85499023 59.96552734 -413.26513672 59.43261719 C-352.59225129 4.77758188 -272.45205449 -29.24076382 -191 -35 C-190.15002441 -35.06171387 -189.30004883 -35.12342773 -188.42431641 -35.18701172 C-124.03361426 -39.54914913 -58.215901 -28.09164784 0 0 Z " fill="#0E345E" transform="translate(545,41)"/>
<path d="M0 0 C0.73310394 0.00215515 1.46620789 0.0043103 2.2215271 0.00653076 C13.05064722 0.0576638 23.36596962 0.48067927 33.875 3.3125 C34.6395752 3.50585938 35.40415039 3.69921875 36.19189453 3.8984375 C71.95057822 13.06624246 103.23036206 34.84026388 122.875 66.3125 C123.2472168 66.90337402 123.61943359 67.49424805 124.00292969 68.10302734 C142.8079648 98.41071608 150.80002675 137.26162238 142.77490234 172.35058594 C142.18409769 174.68532019 141.54066644 176.99805859 140.875 179.3125 C140.52888672 180.56450195 140.52888672 180.56450195 140.17578125 181.84179688 C134.33050597 202.51675205 124.53678455 220.7724608 110.875 237.3125 C109.75931641 238.66794922 109.75931641 238.66794922 108.62109375 240.05078125 C104.41719757 244.94572886 99.87762491 249.24574029 94.875 253.3125 C93.95203125 254.07304687 93.0290625 254.83359375 92.078125 255.6171875 C70.52621272 273.00484361 39.99876625 288.04255687 11.68359375 287.22265625 C-0.78079437 287.01584014 -7.42712752 290.82696325 -16.97314453 298.59228516 C-20.56158352 301.46091927 -24.32022148 304.08746616 -28.0625 306.75 C-29.5714335 307.83959509 -31.07924375 308.93074738 -32.5859375 310.0234375 C-33.33456055 310.56581055 -34.08318359 311.10818359 -34.85449219 311.66699219 C-35.97839355 312.48151855 -35.97839355 312.48151855 -37.125 313.3125 C-46.62182413 320.19514459 -56.1365651 327.0467194 -65.73071289 333.79321289 C-70.89090195 337.42710686 -76.01438149 341.10928074 -81.125 344.8125 C-86.93066381 349.01935794 -92.76013301 353.18857391 -98.625 357.3125 C-106.16293876 362.61308243 -113.6393393 367.99582942 -121.1015625 373.40234375 C-121.77477539 373.88815918 -122.44798828 374.37397461 -123.14160156 374.87451172 C-124.47705243 375.84273004 -125.80706481 376.8184892 -127.13183594 377.80126953 C-131.90967466 381.3125 -131.90967466 381.3125 -134.125 381.3125 C-134.07859375 382.24707031 -134.0321875 383.18164062 -133.984375 384.14453125 C-133.48213972 402.42230808 -137.89474913 418.07814843 -146.125 434.3125 C-146.65867187 435.39015625 -147.19234375 436.4678125 -147.7421875 437.578125 C-159.84967153 460.10647837 -182.11445929 477.13274326 -206.125 485.3125 C-234.41766129 493.10276042 -264.68230537 491.32499476 -290.5 477 C-297.27940507 473.08886793 -303.3475832 468.60919377 -309.125 463.3125 C-310.04925781 462.46945312 -310.97351563 461.62640625 -311.92578125 460.7578125 C-326.85913047 446.50606843 -335.89868539 429.0617073 -341.125 409.3125 C-341.125 408.6525 -341.125 407.9925 -341.125 407.3125 C-341.80216064 407.20703857 -342.47932129 407.10157715 -343.17700195 406.99291992 C-346.72376137 406.17430141 -349.9567462 404.84712381 -353.29296875 403.42578125 C-353.99185211 403.13257996 -354.69073547 402.83937866 -355.41079712 402.53729248 C-356.92132789 401.90302341 -358.43098345 401.2666668 -359.93984985 400.62844849 C-363.18136544 399.25753676 -366.42721888 397.89703909 -369.6728363 396.53587341 C-371.35303396 395.83111472 -373.03301433 395.12583781 -374.71278381 394.4200592 C-382.77254635 391.03472572 -390.85184526 387.69792439 -398.9375 384.375 C-400.32584897 383.80404281 -401.7141953 383.23307923 -403.10253906 382.66210938 C-406.68414121 381.18956463 -410.26624041 379.71823286 -413.84851074 378.24731445 C-416.22234341 377.27252703 -418.59604515 376.2974213 -420.96972656 375.32226562 C-426.00033059 373.25572956 -431.03129495 371.19007237 -436.0625 369.125 C-436.88316956 368.78814178 -437.70383911 368.45128357 -438.54937744 368.10421753 C-446.84579441 364.69948117 -455.14422551 361.29995719 -463.453125 357.92578125 C-464.09032974 357.66688614 -464.72753448 357.40799103 -465.38404846 357.14125061 C-468.30776133 355.95360184 -471.2322153 354.7678435 -474.15795898 353.58520508 C-475.16157471 353.17810303 -476.16519043 352.77100098 -477.19921875 352.3515625 C-478.06119873 352.00303223 -478.92317871 351.65450195 -479.8112793 351.29541016 C-480.57480713 350.9710498 -481.33833496 350.64668945 -482.125 350.3125 C-483.22013916 349.8788916 -483.22013916 349.8788916 -484.33740234 349.43652344 C-486.66935633 347.97021421 -486.93893042 346.92217994 -487.65234375 344.2890625 C-487.8846167 343.44794922 -488.11688965 342.60683594 -488.35620117 341.74023438 C-488.58927979 340.81533203 -488.8223584 339.89042969 -489.0625 338.9375 C-489.44208862 337.47666992 -489.44208862 337.47666992 -489.8293457 335.98632812 C-499.62535129 297.01079668 -504.61471933 253.47945327 -500.125 213.3125 C-495.53436143 214.78293892 -491.07736655 216.5002279 -486.625 218.33984375 C-485.89393539 218.64006439 -485.16287079 218.94028503 -484.40965271 219.24960327 C-481.98061948 220.24776486 -479.55280052 221.24884424 -477.125 222.25 C-475.38815782 222.96457203 -473.65125872 223.67900572 -471.91430664 224.39331055 C-466.31650865 226.69640621 -460.72057915 229.00401962 -455.125 231.3125 C-454.19967468 231.69418335 -453.27434937 232.0758667 -452.32098389 232.46911621 C-440.8549977 237.1989766 -429.39145599 241.9347424 -417.92904663 246.67326355 C-408.28206701 250.66126701 -398.63386686 254.64631271 -388.98553467 258.63104248 C-386.13564944 259.80810157 -383.28583136 260.98532305 -380.43603516 262.16259766 C-371.56114583 265.82880453 -362.68589176 269.49412078 -353.80935669 273.15634155 C-349.6780201 274.86088353 -345.54688875 276.56592265 -341.41577148 278.27099609 C-339.47186278 279.07316319 -337.52785678 279.87509456 -335.58374023 280.67675781 C-333.75239157 281.43193319 -331.9212413 282.18758991 -330.09030151 282.9437561 C-328.33394001 283.66831985 -326.57673476 284.39084217 -324.81863403 285.11117554 C-320.43251841 286.91445174 -316.07795767 288.76708395 -311.75146484 290.70947266 C-310.88611618 291.09202713 -310.02076752 291.4745816 -309.12919617 291.86872864 C-307.49113222 292.59539141 -305.8591251 293.33592422 -304.23469543 294.09257507 C-299.91761293 296.05953448 -299.91761293 296.05953448 -295.31347656 295.63305664 C-294.23018066 294.9793811 -294.23018066 294.9793811 -293.125 294.3125 C-291.97128906 293.71695312 -290.81757813 293.12140625 -289.62890625 292.5078125 C-288.99476807 292.17346191 -288.36062988 291.83911133 -287.70727539 291.49462891 C-279.67776451 287.29206852 -271.98060319 284.38051369 -263.125 282.3125 C-262.45202881 282.13444824 -261.77905762 281.95639648 -261.08569336 281.77294922 C-255.180287 280.29252156 -249.63156046 280.07172922 -243.5625 280.1875 C-242.64919922 280.19652344 -241.73589844 280.20554687 -240.79492188 280.21484375 C-238.57132681 280.23812747 -236.34831323 280.2708229 -234.125 280.3125 C-233.90457031 279.64476562 -233.68414062 278.97703125 -233.45703125 278.2890625 C-231.70679846 274.37798512 -229.32409193 271.14429316 -226.8125 267.6875 C-225.72271788 266.16625245 -224.63422229 264.64408261 -223.546875 263.12109375 C-222.98291016 262.33202637 -222.41894531 261.54295898 -221.83789062 260.72998047 C-219.03158981 256.76932045 -216.29591482 252.76116252 -213.5625 248.75 C-213.01956299 247.95408447 -212.47662598 247.15816895 -211.91723633 246.33813477 C-210.83799872 244.75584489 -209.75897494 243.17340915 -208.68017578 241.59082031 C-204.95101621 236.12763081 -201.19559873 230.68243038 -197.44580078 225.23339844 C-196.14854442 223.34674168 -194.85325495 221.45875084 -193.55859375 219.5703125 C-188.19666108 211.75309423 -182.79600348 203.96388079 -177.375 196.1875 C-171.34288098 187.53147373 -165.3334933 178.86011414 -159.44970703 170.10229492 C-156.66447032 165.96626695 -153.8530748 161.90275557 -150.77734375 157.9765625 C-143.8337906 148.9735639 -142.03361094 142.78083681 -142.16601562 131.50097656 C-141.50555219 96.2605349 -121.37374102 62.16786281 -96.99291992 38.06420898 C-86.678899 28.39186548 -74.74109239 20.60804263 -62.125 14.3125 C-61.48240234 13.99055664 -60.83980469 13.66861328 -60.17773438 13.33691406 C-49.58032994 8.13406776 -38.63865621 4.83956949 -27.125 2.3125 C-26.31514648 2.12486084 -25.50529297 1.93722168 -24.67089844 1.74389648 C-16.4716337 0.02205089 -8.33574344 -0.04397196 0 0 Z " fill="#FEFEFE" transform="translate(506.125,145.6875)"/>
<path d="M0 0 C15.68339343 11.97078436 26.22620254 29.49696638 29.26171875 49.08984375 C30.58260231 70.17317751 24.90791204 90.31934374 10.82421875 106.33984375 C9.31986469 107.9388426 7.80041578 109.52386485 6.26171875 111.08984375 C5.7203125 111.64414062 5.17890625 112.1984375 4.62109375 112.76953125 C-5.54311997 122.2663976 -20.82556379 129.5379343 -34.73828125 130.08984375 C-35.89972656 130.14140625 -37.06117188 130.19296875 -38.2578125 130.24609375 C-57.54414063 130.82706462 -74.9116867 125.66998458 -89.73828125 113.08984375 C-90.9603125 112.14625 -90.9603125 112.14625 -92.20703125 111.18359375 C-103.23549149 102.06128713 -110.64333348 86.92758542 -113.73828125 73.08984375 C-114.00898438 72.02636719 -114.00898438 72.02636719 -114.28515625 70.94140625 C-117.40460066 51.31041986 -112.97639043 32.98880891 -102.01171875 16.4921875 C-100.33829387 14.26477493 -98.59133777 12.16947486 -96.73828125 10.08984375 C-96.16851562 9.42726562 -95.59875 8.7646875 -95.01171875 8.08203125 C-69.91780608 -19.14753356 -29.36665588 -20.48544183 0 0 Z " fill="#FEFEFE" transform="translate(550.73828125,230.91015625)"/>
<path d="M0 0 C0.96583008 0.3700415 0.96583008 0.3700415 1.95117188 0.74755859 C26.04539679 10.03078763 45.47865656 27.20336059 56.7265625 50.58984375 C67.27217664 74.5122837 68.82024564 102.05479612 59.3125 126.6875 C49.38788277 150.59864298 30.8724356 169.53850832 7.08203125 179.72265625 C-15.98506565 189.10387665 -41.96021851 190.77043245 -65.21972656 181.07470703 C-77.70820577 175.51408244 -88.0787587 168.37648097 -98 159 C-98.64066406 158.4121875 -99.28132813 157.824375 -99.94140625 157.21875 C-116.21478744 141.78270162 -125.39136738 118.12906005 -126.22265625 96.03515625 C-126.88661685 67.73803393 -116.9997074 43.06912893 -97.75 22.3125 C-72.96675181 -1.02650295 -32.56186041 -13.2039123 0 0 Z M-79 38 C-79.69609375 38.60328125 -80.3921875 39.2065625 -81.109375 39.828125 C-89.24683329 47.33477257 -95.28155788 57.59914016 -99 68 C-99.29777344 68.81855469 -99.59554688 69.63710938 -99.90234375 70.48046875 C-103.94425779 83.68653814 -103.69677334 100.02257005 -99 113 C-98.64808594 113.99 -98.29617188 114.98 -97.93359375 116 C-90.24761364 135.88715647 -76.83356662 149.12994504 -57.80126953 158.20605469 C-42.51757942 164.94264458 -21.73313851 165.45749796 -6.08984375 159.58984375 C14.03595918 151.52286017 28.28872802 137.68056047 36.9375 117.765625 C43.93327729 99.55602824 44.04420219 80.80006626 36.26953125 62.88671875 C27.81447607 44.51988364 14.03532234 30.51574928 -5.0625 23.41796875 C-31.39953001 14.25477784 -58.0333577 19.08603597 -79 38 Z " fill="#0C1E48" transform="translate(538,198)"/>
<path d="M0 0 C1.13759766 -0.01160156 2.27519531 -0.02320313 3.44726562 -0.03515625 C24.44760369 0.03672169 43.33185592 9.23703756 58.5625 23.375 C67.49034386 32.85816429 73.75957254 43.27187073 77.9375 55.5625 C78.18846436 56.29863525 78.43942871 57.03477051 78.69799805 57.79321289 C83.26435198 72.05252446 83.35558677 89.23087226 78.5625 103.375 C78.26448486 104.29877441 78.26448486 104.29877441 77.96044922 105.24121094 C71.3543307 125.51976802 58.57993573 142.35946747 39.54589844 152.44335938 C26.96219873 158.63049466 15.05791311 161.95139974 0.9375 161.875 C-0.90920288 161.86641968 -0.90920288 161.86641968 -2.79321289 161.85766602 C-22.36167849 161.47608672 -38.76593225 154.44916088 -53.4375 141.375 C-54.19675781 140.70984375 -54.95601562 140.0446875 -55.73828125 139.359375 C-62.26866642 133.26886033 -67.08306136 126.12651842 -71.4375 118.375 C-71.4375 117.715 -71.4375 117.055 -71.4375 116.375 C-65.34673149 118.30957028 -59.46360676 120.53133199 -53.59765625 123.0625 C-51.94079179 123.76831506 -50.28388959 124.47404151 -48.62695312 125.1796875 C-46.06148172 126.27717866 -43.49676465 127.37638952 -40.93286133 128.47753906 C-23.06465082 136.36108477 -23.06465082 136.36108477 -3.875 138.6875 C-2.99392578 138.69072266 -2.11285156 138.69394531 -1.20507812 138.69726562 C14.48031289 138.56993035 27.82666214 132.74818615 39.5625 122.375 C50.79197266 110.81094343 56.16131011 95.43545768 56.0625 79.5625 C56.05750488 78.50659668 56.05250977 77.45069336 56.04736328 76.36279297 C55.86175373 68.04876525 54.62556705 61.72925857 50.5625 54.375 C50.10488281 53.49070312 49.64726562 52.60640625 49.17578125 51.6953125 C38.42132093 32.30781965 20.80066695 25.39345949 1.1875 17.5625 C-1.95256534 16.29494405 -5.09108065 15.02363899 -8.22891235 13.75056458 C-10.16833938 12.96517751 -12.10932493 12.18362439 -14.05209351 11.40653992 C-18.62298099 9.56969122 -23.07502979 7.66540964 -27.4375 5.375 C-19.27017071 -0.06988619 -9.5055563 -0.09661209 0 0 Z " fill="#16487A" transform="translate(266.4375,449.625)"/>
</svg>
