<?xml version="1.0" standalone="no"?>
<!DOCTYPE svg PUBLIC "-//W3C//DTD SVG 20010904//EN"
 "http://www.w3.org/TR/2001/REC-SVG-20010904/DTD/svg10.dtd">
<svg version="1.0" xmlns="http://www.w3.org/2000/svg"
 width="866.000000pt" height="650.000000pt" viewBox="0 0 866.000000 650.000000"
 preserveAspectRatio="xMidYMid meet">

<g transform="translate(0.000000,650.000000) scale(0.100000,-0.100000)"
fill="#000000" stroke="none">
<path d="M1934 5306 c-18 -14 -19 -33 -21 -567 -2 -361 -6 -556 -13 -564 -6
-7 -24 -15 -40 -19 l-30 -5 0 -174 c0 -183 3 -197 46 -197 13 0 26 -4 29 -10
3 -5 6 -210 5 -455 0 -270 4 -461 10 -484 5 -20 21 -48 36 -62 23 -22 35 -24
142 -27 140 -5 185 6 212 51 19 31 20 54 20 509 l0 477 228 3 c211 3 230 5
272 25 56 28 87 73 100 146 7 37 10 267 8 654 -3 579 -4 599 -23 633 -12 21
-39 44 -65 58 -44 22 -48 22 -470 22 -352 0 -430 -2 -446 -14z m574 -358 c17
-17 17 -759 0 -776 -15 -15 -132 -16 -159 -2 -18 10 -19 25 -19 388 0 281 3
381 12 390 16 16 150 16 166 0z"/>
<path d="M3201 5303 l-22 -18 3 -1175 3 -1175 22 -40 c28 -53 78 -99 133 -124
42 -19 65 -21 380 -21 332 0 335 0 385 24 60 29 107 76 134 136 20 44 21 60
21 1212 l0 1167 -22 15 c-18 13 -54 16 -183 16 -129 0 -165 -3 -183 -16 l-22
-15 0 -1073 c0 -874 -2 -1076 -13 -1090 -12 -16 -28 -18 -118 -17 -84 1 -106
5 -116 18 -10 13 -13 247 -13 1089 l0 1073 -22 15 c-18 13 -54 16 -184 16
-139 0 -165 -2 -183 -17z"/>
<path d="M4520 5300 c-19 -19 -20 -33 -20 -501 l0 -481 -39 -15 -40 -16 -3
-137 c-4 -181 -2 -192 42 -206 l35 -12 5 -578 c3 -319 9 -585 13 -591 6 -10
98 -13 401 -13 l394 0 53 28 c31 16 68 46 86 71 63 82 64 97 61 623 -3 538 3
494 -94 602 l-53 59 40 29 c71 51 69 41 70 579 0 449 -1 482 -18 512 -39 67
-42 67 -500 67 -400 0 -414 -1 -433 -20z m560 -349 c15 -29 14 -633 -2 -649
-7 -7 -43 -12 -90 -12 -76 0 -79 1 -89 27 -6 17 -9 138 -7 331 3 256 5 304 18
312 8 5 47 10 87 10 61 0 74 -3 83 -19z m-9 -1051 c18 -10 19 -25 19 -385 0
-205 -3 -380 -6 -389 -5 -13 -23 -16 -90 -16 -72 0 -85 3 -94 19 -6 13 -10
151 -10 380 0 422 -5 401 101 401 33 0 69 -5 80 -10z"/>
<path d="M5883 5311 c-51 -13 -96 -44 -128 -90 l-30 -43 0 -1142 0 -1142 28
-42 c15 -23 46 -54 69 -69 l42 -28 352 0 352 0 43 30 c61 43 105 105 118 165
15 69 15 1303 1 1331 -10 18 -23 19 -221 19 -126 0 -218 -4 -230 -10 -18 -10
-19 -23 -19 -168 0 -170 3 -182 51 -182 15 0 29 -7 33 -16 3 -9 6 -190 6 -404
0 -340 -2 -391 -16 -404 -11 -12 -36 -16 -90 -16 -128 0 -114 -117 -114 934 0
768 2 915 14 925 9 8 54 11 132 9 l119 -3 3 -124 c1 -71 7 -130 14 -138 17
-21 291 -18 312 3 14 13 16 51 16 257 0 266 -4 288 -63 331 -27 20 -41 21
-395 23 -202 1 -381 -2 -399 -6z"/>
<path d="M1868 2483 l-3 -78 -32 -3 c-32 -3 -33 -5 -33 -48 0 -44 0 -44 35
-44 l35 0 0 -190 c0 -183 -1 -190 -20 -191 -11 -1 -26 -2 -32 -3 -8 -1 -13
-17 -13 -46 0 -43 1 -45 33 -48 l32 -3 0 -75 0 -74 2455 0 2455 0 0 75 c0 71
1 75 23 76 12 1 26 1 30 0 4 -1 7 20 5 46 -3 44 -5 48 -30 51 l-28 3 0 190 0
189 30 0 c29 0 30 2 30 45 0 43 -1 45 -30 45 l-29 0 -3 78 -3 77 -2452 3
-2452 2 -3 -77z m4815 -23 c4 0 7 -155 7 -345 l0 -345 -2365 0 -2365 0 0 348
0 347 2357 -2 c1297 -2 2361 -3 2366 -3z"/>
<path d="M2228 2261 l-33 -29 0 -109 c0 -128 12 -155 74 -174 77 -23 141 19
141 91 0 41 -1 41 -32 38 -28 -3 -34 -8 -38 -33 -4 -22 -11 -31 -29 -33 -34
-5 -41 12 -41 109 0 91 10 114 47 107 12 -2 19 -14 21 -36 3 -29 6 -32 38 -32
32 0 34 2 34 34 0 48 -8 65 -41 81 -47 25 -104 19 -141 -14z"/>
<path d="M2649 2261 c-16 -16 -29 -35 -30 -43 -6 -119 -1 -208 14 -231 23 -36
79 -52 127 -38 62 19 75 41 79 144 5 151 -22 197 -119 197 -33 0 -48 -6 -71
-29z m100 -45 c8 -9 11 -47 9 -107 -3 -90 -4 -94 -27 -97 -13 -2 -28 2 -32 10
-14 21 -11 182 3 196 16 16 33 15 47 -2z"/>
<path d="M3098 2282 l-58 -3 0 -164 0 -165 35 0 35 0 0 65 c0 36 4 65 9 65 9
0 51 -100 51 -120 0 -6 18 -10 40 -10 22 0 40 4 40 8 0 5 -11 36 -24 70 l-24
61 20 13 c16 11 22 28 26 69 4 48 1 59 -19 81 -27 30 -51 35 -131 30z m72
-101 c0 -28 -5 -40 -17 -43 -32 -8 -43 3 -43 43 0 37 2 39 30 39 28 0 30 -2
30 -39z"/>
<path d="M3908 2274 c-38 -20 -51 -72 -47 -181 4 -102 16 -124 76 -144 27 -9
45 -9 74 0 62 19 72 43 71 174 l0 112 -31 27 c-36 32 -97 37 -143 12z m91 -58
c8 -9 11 -47 9 -107 l-3 -94 -30 0 -30 0 -3 94 c-3 93 5 121 33 121 7 0 18 -6
24 -14z"/>
<path d="M5819 2261 c-29 -29 -29 -31 -29 -141 0 -126 10 -152 65 -170 49 -16
101 -3 131 33 25 29 26 34 22 145 -3 110 -4 114 -31 138 -43 37 -118 34 -158
-5z m99 -39 c9 -6 12 -35 10 -108 -3 -88 -5 -99 -22 -102 -31 -6 -46 26 -46
99 0 100 18 136 58 111z"/>
<path d="M3450 2115 l0 -165 40 0 40 0 0 59 0 58 47 6 c64 7 83 31 83 108 0
86 -16 99 -125 99 l-85 0 0 -165z m138 63 c-3 -39 -6 -43 -30 -46 -27 -3 -28
-2 -28 42 0 45 1 46 31 46 29 0 30 -1 27 -42z"/>
<path d="M4298 2143 c-1 -146 -1 -174 1 -185 0 -5 17 -8 36 -8 l35 0 0 65 c0
36 4 65 9 65 5 0 19 -29 32 -65 23 -65 23 -65 61 -65 21 0 38 2 38 5 0 3 -11
33 -25 68 -22 54 -24 63 -11 73 38 27 44 128 10 165 -14 16 -32 19 -101 19
l-83 0 -2 -137z m132 37 c0 -38 -2 -40 -30 -40 -28 0 -30 2 -30 40 0 38 2 40
30 40 28 0 30 -2 30 -40z"/>
<path d="M4732 2138 c-18 -79 -35 -153 -38 -165 -6 -21 -3 -23 30 -23 32 0 36
3 44 33 7 26 14 33 39 35 28 3 31 0 37 -32 7 -34 9 -36 47 -36 38 0 39 1 32
28 -3 15 -21 88 -38 162 l-32 135 -44 3 -44 3 -33 -143z m88 -23 c6 -28 5 -38
-6 -42 -22 -8 -25 0 -18 46 8 48 12 47 24 -4z"/>
<path d="M5090 2250 c0 -28 3 -30 35 -30 l35 0 0 -135 0 -135 35 0 35 0 0 135
0 135 35 0 c32 0 35 2 35 30 l0 30 -105 0 -105 0 0 -30z"/>
<path d="M5500 2115 l0 -165 40 0 40 0 0 165 0 165 -40 0 -40 0 0 -165z"/>
<path d="M6220 2115 l0 -165 35 0 35 0 0 88 1 87 47 -87 c41 -77 50 -88 75
-88 l27 0 0 165 0 165 -30 0 -29 0 -3 -82 -3 -83 -45 82 c-42 78 -47 83 -77
83 l-33 0 0 -165z"/>
<path d="M3792 1475 l-32 -27 0 -103 c0 -120 3 -131 41 -150 47 -25 96 -19
130 14 28 29 29 32 29 130 0 90 -2 103 -23 126 -16 20 -35 28 -68 32 -38 4
-50 1 -77 -22z m93 -135 l0 -95 -26 -3 c-32 -4 -39 15 -39 101 0 70 13 99 43
95 21 -3 22 -8 22 -98z"/>
<path d="M4749 1471 c-28 -29 -29 -32 -29 -131 0 -99 1 -102 29 -131 30 -29
67 -37 119 -23 26 7 52 51 52 89 0 21 -5 25 -29 25 -25 0 -30 -4 -33 -27 -3
-24 -8 -28 -33 -28 l-30 0 0 95 0 95 30 0 c25 0 30 -4 33 -27 3 -24 8 -28 33
-28 26 0 29 3 29 31 0 47 -47 89 -100 89 -33 0 -48 -6 -71 -29z"/>
<path d="M5050 1487 c-41 -21 -51 -52 -48 -160 3 -94 4 -100 31 -123 39 -33
104 -33 141 1 25 23 26 28 26 129 0 57 -3 112 -6 121 -15 38 -96 57 -144 32z
m84 -63 c9 -24 7 -157 -3 -172 -4 -8 -19 -12 -32 -10 -23 3 -24 7 -27 87 -2
46 -1 90 2 98 7 18 53 16 60 -3z"/>
<path d="M1995 1373 c-15 -65 -30 -133 -35 -150 -8 -32 -8 -33 25 -33 28 0 33
4 39 30 5 25 10 30 35 30 24 0 31 -5 36 -29 6 -29 41 -46 63 -32 6 4 -4 64
-25 154 l-35 147 -38 0 -38 0 -27 -117z m78 -40 c6 -28 4 -33 -13 -33 -22 0
-23 3 -14 49 8 37 19 30 27 -16z"/>
<path d="M2400 1340 l0 -150 79 0 c59 0 84 4 95 16 21 20 22 107 1 124 -13 11
-13 14 0 27 9 8 15 33 15 57 0 63 -19 76 -113 76 l-77 0 0 -150z m128 66 c4
-30 -10 -46 -40 -46 -14 0 -18 9 -18 41 0 38 1 40 28 37 21 -2 28 -9 30 -32z
m-10 -95 c8 -5 12 -21 10 -37 -2 -23 -9 -30 -30 -32 -27 -3 -28 -1 -28 37 0
42 16 53 48 32z"/>
<path d="M2680 1340 l0 -150 85 0 c84 0 85 0 85 25 0 23 -3 25 -50 25 l-50 0
0 125 0 125 -35 0 -35 0 0 -150z"/>
<path d="M2920 1356 c0 -133 0 -135 26 -155 38 -30 104 -28 141 3 28 24 28 25
30 155 l3 131 -35 0 -35 0 0 -118 c0 -78 -4 -122 -12 -130 -16 -16 -23 -15
-42 4 -13 12 -16 39 -16 130 l0 114 -30 0 -30 0 0 -134z"/>
<path d="M3210 1340 l0 -150 85 0 c84 0 85 0 85 25 0 23 -3 25 -50 25 l-50 0
0 40 c0 39 1 40 35 40 31 0 35 3 35 25 0 22 -4 25 -35 25 -33 0 -35 2 -35 35
l0 35 50 0 c47 0 50 2 50 25 0 25 -1 25 -85 25 l-85 0 0 -150z"/>
<path d="M3470 1340 l0 -150 30 0 c28 0 29 1 32 58 l3 57 38 3 37 3 0 -59 c0
-49 3 -61 18 -64 44 -12 47 -1 47 154 l0 148 -32 0 -33 0 0 -60 0 -60 -40 0
-40 0 0 60 0 60 -30 0 -30 0 0 -150z"/>
<path d="M4050 1340 l0 -150 85 0 c84 0 85 0 85 25 0 23 -3 25 -50 25 l-50 0
0 125 0 125 -35 0 -35 0 0 -150z"/>
<path d="M4300 1340 l0 -150 85 0 c84 0 85 0 85 24 0 23 -4 25 -52 28 l-53 3
-3 38 -3 37 40 0 c37 0 41 2 41 25 0 23 -4 25 -41 25 -39 0 -40 1 -37 33 3 31
4 32 56 35 48 3 52 5 52 28 0 24 -1 24 -85 24 l-85 0 0 -150z"/>
<path d="M5290 1341 l0 -151 30 0 30 0 1 98 1 97 23 -92 c28 -112 30 -114 58
-104 17 6 26 26 43 92 l22 84 1 -87 c1 -91 5 -98 48 -90 23 4 23 6 23 153 l0
149 -48 0 -48 0 -19 -90 c-10 -49 -22 -90 -25 -90 -4 0 -15 39 -26 88 l-19 87
-47 3 -48 3 0 -150z"/>
<path d="M5660 1340 l0 -150 35 0 35 0 0 55 0 55 40 0 c57 0 80 28 80 97 0 78
-19 93 -115 93 l-75 0 0 -150z m126 76 c9 -38 -4 -66 -32 -66 -22 0 -24 4 -24
45 0 41 2 45 25 45 18 0 26 -7 31 -24z"/>
<path d="M5940 1358 c-17 -73 -33 -141 -36 -151 -5 -16 -1 -18 27 -15 26 2 34
9 39 28 4 19 13 26 37 28 27 3 31 0 36 -27 6 -27 11 -31 41 -31 l34 0 -13 53
c-7 28 -23 96 -35 150 l-22 97 -38 0 -38 0 -32 -132z m83 -25 c6 -29 4 -33
-14 -33 -19 0 -21 4 -15 31 3 17 6 39 6 48 1 24 16 -6 23 -46z"/>
<path d="M6190 1340 l0 -150 30 0 30 0 0 78 c1 88 5 87 62 -20 26 -50 35 -58
59 -58 l29 0 0 150 0 150 -30 0 -29 0 -3 -81 -3 -81 -43 81 c-39 73 -46 81
-73 81 l-29 0 0 -150z"/>
<path d="M6490 1446 c11 -25 29 -67 40 -92 13 -29 20 -68 20 -105 l0 -60 32 3
c32 3 32 3 29 54 -2 41 5 68 38 143 23 50 41 94 41 96 0 3 -14 5 -31 5 -25 0
-32 -6 -45 -37 -8 -21 -18 -47 -22 -57 -7 -15 -12 -9 -29 35 -19 50 -23 54
-56 57 l-37 3 20 -45z"/>
</g>
</svg>
