<?xml version="1.0" standalone="no"?>
<!DOCTYPE svg PUBLIC "-//W3C//DTD SVG 20010904//EN"
 "http://www.w3.org/TR/2001/REC-SVG-20010904/DTD/svg10.dtd">
<svg version="1.0" xmlns="http://www.w3.org/2000/svg"
 width="474.000000pt" height="466.000000pt" viewBox="0 0 474.000000 466.000000"
 preserveAspectRatio="xMidYMid meet">

<g transform="translate(0.000000,466.000000) scale(0.100000,-0.100000)"
fill="#000000" stroke="none">
<path d="M2110 4652 c0 -4 -42 -13 -93 -20 -51 -6 -153 -27 -227 -45 -870
-220 -1540 -911 -1734 -1788 -14 -64 -29 -144 -32 -178 -4 -33 -11 -61 -15
-61 -5 0 -9 -119 -9 -265 0 -170 4 -265 10 -265 6 0 10 -13 10 -28 0 -16 9
-78 20 -138 149 -828 768 -1542 1565 -1806 72 -24 132 -46 133 -50 2 -5 15 -8
29 -8 23 0 25 3 19 31 -3 17 -6 132 -6 254 l0 223 -192 4 c-207 5 -272 18
-356 72 -82 53 -123 115 -177 266 -60 170 -107 252 -186 323 -72 65 -86 97
-50 117 33 17 63 12 140 -25 75 -36 162 -114 279 -253 29 -34 66 -69 82 -77
57 -30 163 -38 337 -25 91 6 171 14 178 16 7 3 18 19 24 34 34 98 166 268 248
320 45 29 46 40 5 40 -13 0 -81 11 -149 25 -626 127 -972 469 -974 965 -1 58
4 134 11 169 25 136 96 288 197 422 l54 69 -15 58 c-59 226 -61 476 -5 582 39
74 38 73 134 61 172 -21 332 -97 467 -221 l67 -61 88 25 c178 51 254 60 483
61 227 0 339 -14 505 -66 l66 -20 58 53 c145 135 314 213 503 233 l66 7 26
-38 c70 -108 76 -332 15 -586 l-21 -88 55 -72 c185 -243 245 -535 171 -822
-77 -298 -305 -524 -653 -646 -115 -41 -298 -85 -398 -96 -35 -4 -63 -9 -63
-13 0 -3 24 -22 52 -41 76 -52 152 -150 213 -275 88 -182 90 -196 90 -592 0
-240 3 -343 11 -343 22 0 211 82 313 136 371 195 681 483 909 844 158 249 296
629 328 903 4 31 11 57 15 57 5 0 9 126 9 280 0 154 -4 280 -9 280 -4 0 -11
28 -15 61 -9 94 -54 281 -97 410 -233 702 -793 1262 -1492 1494 -142 47 -327
91 -426 101 -34 4 -64 11 -67 15 -7 11 -524 12 -524 1z"/>
</g>
</svg>
