<?xml version="1.0" encoding="UTF-8"?>
<svg version="1.1" xmlns="http://www.w3.org/2000/svg" width="240" height="180">
<path d="M0 0 C79.2 0 158.4 0 240 0 C240 59.4 240 118.8 240 180 C160.8 180 81.6 180 0 180 C0 120.6 0 61.2 0 0 Z " fill="#FDFDFC" transform="translate(0,0)"/>
<path d="M0 0 C2 2 2 2 2 5 C4.97 4.505 4.97 4.505 8 4 C8.33 2.68 8.66 1.36 9 0 C17.58 0 26.16 0 35 0 C35 -0.66 35 -1.32 35 -2 C35.66 -2 36.32 -2 37 -2 C37 -1.01 37 -0.02 37 1 C37.5465625 0.82984375 38.093125 0.6596875 38.65625 0.484375 C41.3995674 -0.08257726 43.70990602 0.0200472 46.5 0.25 C47.4384375 0.31703125 48.376875 0.3840625 49.34375 0.453125 C52.43735392 1.09004345 53.86314438 1.66220154 56 4 C56.609375 6.87890625 56.609375 6.87890625 56.75 10.5625 C56.79338501 11.56893555 56.79338501 11.56893555 56.83764648 12.59570312 C57.23997296 23.71899084 57.08279795 34.8719552 57 46 C55.35 46 53.7 46 52 46 C52.185625 46.7425 52.37125 47.485 52.5625 48.25 C53 51 53 51 52.4375 53.125 C52.293125 53.74375 52.14875 54.3625 52 55 C52.66 55.99 53.32 56.98 54 58 C55.53526681 63.37343385 55.77704082 69.66887754 54 75 C53.34 75 52.68 75 52 75 C52 75.66 52 76.32 52 77 C53.65 77 55.3 77 57 77 C57 95.48 57 113.96 57 133 C51 131 51 131 49 130 C47.00039988 129.960008 44.99952758 129.95653201 43 130 C44.485 130.99 44.485 130.99 46 132 C41.17695393 133.95609608 37.53411528 134.09025088 32.375 133.625 C25.02268127 132.99396266 19.67645829 133.27169902 12.65625 135.44140625 C9.85910582 136.02962922 8.66842964 135.84045028 6 135 C4.25309081 134.7856066 2.5025977 134.59892347 0.75 134.4375 C-0.14203125 134.35371094 -1.0340625 134.26992187 -1.953125 134.18359375 C-2.62859375 134.12300781 -3.3040625 134.06242188 -4 134 C-4 134.66 -4 135.32 -4 136 C-9.52677733 136.19392201 -13.75614911 135.7479503 -19 134 C-19 134.66 -19 135.32 -19 136 C-19.99 136.33 -20.98 136.66 -22 137 C-22.5878125 136.03320312 -22.5878125 136.03320312 -23.1875 135.046875 C-24.82954253 132.80729949 -24.82954253 132.80729949 -27.375 132.390625 C-28.24125 132.34421875 -29.1075 132.2978125 -30 132.25 C-30.86625 132.19328125 -31.7325 132.1365625 -32.625 132.078125 C-34.41588725 132.01921424 -36.20814409 132 -38 132 C-38 131.34 -38 130.68 -38 130 C-38.66 130 -39.32 130 -40 130 C-40.33 130.66 -40.66 131.32 -41 132 C-45.29 132 -49.58 132 -54 132 C-54 131.34 -54 130.68 -54 130 C-54.71027344 130.32871094 -55.42054687 130.65742188 -56.15234375 130.99609375 C-59.19718169 132.06951398 -61.35449854 132.17404386 -64.5625 132.0625 C-68.42763939 131.93429507 -68.42763939 131.93429507 -72.21484375 132.55859375 C-74 133 -74 133 -76 132 C-76 131.34 -76 130.68 -76 130 C-77.32 130 -78.64 130 -80 130 C-79.67 121.09 -79.34 112.18 -79 103 C-78.01 103 -77.02 103 -76 103 C-76 97.72 -76 92.44 -76 87 C-76.99 87 -77.98 87 -79 87 C-79.02690104 84.20826945 -79.04679053 81.41679652 -79.0625 78.625 C-79.07087891 77.8309375 -79.07925781 77.036875 -79.08789062 76.21875 C-79.11328125 70.2265625 -79.11328125 70.2265625 -78 68 C-77.34 68 -76.68 68 -76 68 C-76.46019531 66.81083984 -76.46019531 66.81083984 -76.9296875 65.59765625 C-78.23560396 61.20806116 -78.71477602 56.98664361 -79.125 52.4375 C-79.20919189 51.52436035 -79.29338379 50.6112207 -79.38012695 49.67041016 C-80.51746734 36.1997829 -80.7610684 22.42814652 -79 9 C-79.66 9 -80.32 9 -81 9 C-81 6.69 -81 4.38 -81 2 C-72.18762209 -0.295498 -63.95939119 0.10184518 -54.98828125 0.74609375 C-52.510378 0.90384469 -50.02581071 0.99229455 -47.54296875 0.97265625 C-45 1 -45 1 -44 2 C-41.13732433 2.07325168 -38.299281 2.09238205 -35.4375 2.0625 C-34.22803711 2.05573242 -34.22803711 2.05573242 -32.99414062 2.04882812 C-30.99606244 2.03700518 -28.99802217 2.01906914 -27 2 C-26.67 1.01 -26.34 0.02 -26 -1 C-17.58129032 -2.82026155 -8.19322148 -2.91714699 0 0 Z " fill="#B7230C" transform="translate(132,23)"/>
<path d="M0 0 C5.51869356 2.93692851 10.68781384 6.44824794 15 11 C17.07054938 12.72545782 18.78467665 13.91766312 21.30932617 14.88305664 C24.20428668 16.08480279 26.57550321 17.56067019 29.17578125 19.30859375 C30.1608667 19.96786865 31.14595215 20.62714355 32.16088867 21.30639648 C33.20092041 22.00966064 34.24095215 22.7129248 35.3125 23.4375 C36.38540283 24.1581665 37.45830566 24.87883301 38.5637207 25.62133789 C46.48071858 30.94820317 54.36527949 36.32096953 62.20507812 41.76074219 C64.07311887 43.05048305 65.9495801 44.32717756 67.828125 45.6015625 C68.43696533 46.01672119 69.04580566 46.43187988 69.6730957 46.85961914 C71.32083896 47.98296645 72.97088029 49.10294086 74.62109375 50.22265625 C77 52 77 52 78 54 C79.6701734 54.70147283 81.34048488 55.40261997 83.01171875 56.1015625 C86.40890836 57.63663836 89.50395491 59.17262149 92 62 C93.64423721 71.70099955 88.94343988 80.91073475 84 89 C76.52233039 89.44866018 70.13157516 89.7422858 64 85 C61.45041638 82.49564181 59.24853978 79.77303718 57 77 C54.84546624 74.61747324 52.67634973 72.24900331 50.50390625 69.8828125 C49 68 49 68 49 66 C48.34 66 47.68 66 47 66 C43.51841423 62.80854638 40.51372333 59.28719498 37.46484375 55.6875 C34.87148523 52.69995099 32.02062769 49.9792803 29.16796875 47.2421875 C28.53503906 46.62601563 27.90210938 46.00984375 27.25 45.375 C26.65703125 44.80523437 26.0640625 44.23546875 25.453125 43.6484375 C24 42 24 42 23 39 C21.35020785 37.97239909 19.68081366 36.97603444 18 36 C12.80911227 31.35021188 8.16237837 26.14845575 3.640625 20.85546875 C2.01990491 19.02251151 0.32261589 17.32342959 -1.4375 15.625 C-4 13 -4 13 -4 11 C-4.5775 10.773125 -5.155 10.54625 -5.75 10.3125 C-8.62887527 8.63315609 -10.17447619 6.77209171 -12 4 C-11.67 3.01 -11.34 2.02 -11 1 C-7.35660482 -0.82169759 -3.89117602 -0.79388936 0 0 Z " fill="#FBFBFA" transform="translate(80,46)"/>
<path d="M0 0 C3 2 3 2 3.6875 4.125 C4.22784624 9.0961854 4.60482792 14.18551625 3 19 C2.34 19 1.68 19 1 19 C1 19.66 1 20.32 1 21 C2.65 21 4.3 21 6 21 C6 39.48 6 57.96 6 77 C0 75 0 75 -2 74 C-3.99960012 73.960008 -6.00047242 73.95653201 -8 74 C-7.01 74.66 -6.02 75.32 -5 76 C-9.82304607 77.95609608 -13.46588472 78.09025088 -18.625 77.625 C-25.97731873 76.99396266 -31.32354171 77.27169902 -38.34375 79.44140625 C-41.12004339 80.02524442 -42.3564638 79.85968657 -45 79 C-46.41366158 78.79104637 -47.83060623 78.60309594 -49.25 78.4375 C-50.4875 78.293125 -51.725 78.14875 -53 78 C-53 77.34 -53 76.68 -53 76 C-44.585 75.505 -44.585 75.505 -36 75 C-36 74.34 -36 73.68 -36 73 C-33.03 73 -30.06 73 -27 73 C-27 72.34 -27 71.68 -27 71 C-25.68 71 -24.36 71 -23 71 C-23 71.99 -23 72.98 -23 74 C-20.36 74 -17.72 74 -15 74 C-14.855625 72.700625 -14.71125 71.40125 -14.5625 70.0625 C-14.125 66.125 -14.125 66.125 -13 65 C-11.33382885 64.95936168 -9.66611905 64.957279 -8 65 C-7.67 66.32 -7.34 67.64 -7 69 C-3.535 68.01 -3.535 68.01 0 67 C-0.01160156 66.04222656 -0.02320313 65.08445312 -0.03515625 64.09765625 C-0.09718602 56.57105969 0.01354697 49.07861602 0.4375 41.5625 C0.47673584 40.82330322 0.51597168 40.08410645 0.55639648 39.32250977 C0.87605319 34.12394681 0.87605319 34.12394681 2 33 C2.23075082 31.65252916 2.41153063 30.29622435 2.5625 28.9375 C2.706875 27.638125 2.85125 26.33875 3 25 C1.68 25 0.36 25 -1 25 C-1 22.36 -1 19.72 -1 17 C-2.32 17 -3.64 17 -5 17 C-5 12.05 -5 7.1 -5 2 C-4.34 2 -3.68 2 -3 2 C-2.505 2.99 -2.505 2.99 -2 4 C-1.34 2.68 -0.68 1.36 0 0 Z " fill="#AD210F" transform="translate(183,79)"/>
<path d="M0 0 C5.47028567 2.53763799 9.6050124 6.31886109 13.4375 10.9375 C16.07407414 14.08852763 18.87753586 16.58402466 22.03515625 19.19140625 C24.30063231 21.27672517 26.12773248 23.5606314 28 26 C25.15155105 27.03990993 22.29807022 28.05695271 19.4375 29.0625 C18.63763672 29.35705078 17.83777344 29.65160156 17.01367188 29.95507812 C11.96805664 31.7055977 8.29774739 32.51364211 3 31 C-0.08984375 29.15234375 -0.08984375 29.15234375 -2.9375 26.9375 C-3.89527344 26.20402344 -4.85304688 25.47054687 -5.83984375 24.71484375 C-6.55269531 24.14894531 -7.26554687 23.58304688 -8 23 C-7.51928438 16.93350424 -6.15614116 12.41574853 -3.4375 7 C-3.10814453 6.32066406 -2.77878906 5.64132813 -2.43945312 4.94140625 C-1.63662717 3.28921371 -0.81978216 1.64384516 0 0 Z " fill="#F9FBFA" transform="translate(77,105)"/>
<path d="M0 0 C-0.825 0.433125 -1.65 0.86625 -2.5 1.3125 C-3.325 1.869375 -4.15 2.42625 -5 3 C-5 3.99 -5 4.98 -5 6 C-4.01 6.33 -3.02 6.66 -2 7 C-2 7.99 -2 8.98 -2 10 C-3.32 10 -4.64 10 -6 10 C-6 9.34 -6 8.68 -6 8 C-6.66 8 -7.32 8 -8 8 C-8 8.66 -8 9.32 -8 10 C-10.31243792 10.02685412 -12.6249627 10.04632841 -14.9375 10.0625 C-16.22527344 10.07410156 -17.51304688 10.08570313 -18.83984375 10.09765625 C-22 10 -22 10 -23 9 C-24.134375 9.165 -25.26875 9.33 -26.4375 9.5 C-30 10 -30 10 -32 9 C-32.66 9.66 -33.32 10.32 -34 11 C-34 10.01 -34 9.02 -34 8 C-34.66 8 -35.32 8 -36 8 C-36.33 8.66 -36.66 9.32 -37 10 C-37.99 9.67 -38.98 9.34 -40 9 C-41.155 9.185625 -42.31 9.37125 -43.5 9.5625 C-47 10 -47 10 -50 8 C-52.02919843 8.25723969 -52.02919843 8.25723969 -54 9 C-54.99 9.33 -55.98 9.66 -57 10 C-57.7971422 16.22767341 -58.0946816 22.22858955 -58 28.5 C-57.92366723 37.70503802 -58.3342017 46.82149482 -59 56 C-59.33 56 -59.66 56 -60 56 C-62.83742933 40.92615669 -62.99463837 25.20911757 -61 10 C-61.66 10 -62.32 10 -63 10 C-63 7.69 -63 5.38 -63 3 C-54.18762209 0.704502 -45.95939119 1.10184518 -36.98828125 1.74609375 C-34.510378 1.90384469 -32.02581071 1.99229455 -29.54296875 1.97265625 C-27 2 -27 2 -26 3 C-23.13732433 3.07325168 -20.299281 3.09238205 -17.4375 3.0625 C-16.22803711 3.05573242 -16.22803711 3.05573242 -14.99414062 3.04882812 C-12.99606244 3.03700518 -10.99802217 3.01906914 -9 3 C-8.67 2.01 -8.34 1.02 -8 0 C-2.25 -1.125 -2.25 -1.125 0 0 Z " fill="#D12B12" transform="translate(114,22)"/>
<path d="M0 0 C2.875 2.0625 2.875 2.0625 5 5 C5.73513426 11.19613161 4.38645172 16.9590318 3 23 C2.01 23 1.02 23 0 23 C0 22.01 0 21.02 0 20 C-0.58652344 20.22558594 -1.17304688 20.45117188 -1.77734375 20.68359375 C-4 21 -4 21 -5.75390625 19.84765625 C-6.35074219 19.25855469 -6.94757813 18.66945313 -7.5625 18.0625 C-11.71590309 14.15249104 -16.18815987 10.94052531 -20.875 7.69921875 C-21.57625 7.13847656 -22.2775 6.57773437 -23 6 C-23 5.34 -23 4.68 -23 4 C-20.29592085 3.12975626 -17.58812663 2.2786585 -14.875 1.4375 C-14.11445313 1.19064453 -13.35390625 0.94378906 -12.5703125 0.68945312 C-8.0290558 -0.70032802 -4.69517203 -1.39737263 0 0 Z " fill="#FBF8F6" transform="translate(157,47)"/>
<path d="M0 0 C5.50205745 2.92807513 10.72715163 6.42844186 15 11 C16.0828125 12.0828125 16.0828125 12.0828125 17.1875 13.1875 C17.785625 13.785625 18.38375 14.38375 19 15 C16 16 16 16 13 16 C9.83927895 17.25944653 9.83927895 17.25944653 8 20 C8.66 20 9.32 20 10 20 C13.125 26.625 13.125 26.625 12 30 C11.18015625 29.10796875 10.3603125 28.2159375 9.515625 27.296875 C8.42712808 26.11454214 7.33858392 24.93225277 6.25 23.75 C5.44175781 22.87021484 5.44175781 22.87021484 4.6171875 21.97265625 C2.32735572 19.48735102 0.04738688 17.04552858 -2.390625 14.703125 C-4 13 -4 13 -4 11 C-4.5775 10.773125 -5.155 10.54625 -5.75 10.3125 C-8.62887527 8.63315609 -10.17447619 6.77209171 -12 4 C-11.67 3.01 -11.34 2.02 -11 1 C-7.35660482 -0.82169759 -3.89117602 -0.79388936 0 0 Z " fill="#F9FBFA" transform="translate(80,46)"/>
<path d="M0 0 C0.66 0.33 1.32 0.66 2 1 C2 1.99 2 2.98 2 4 C2.66 4.33 3.32 4.66 4 5 C3.67 5.33 3.34 5.66 3 6 C2.7746669 8.0279979 2.55232815 10.05674874 2.37890625 12.08984375 C2 14 2 14 0 16 C-0.02168637 18.90675183 -0.02168637 18.90675183 0.375 22.125 C0.48585937 23.22070312 0.59671875 24.31640625 0.7109375 25.4453125 C0.80632813 26.28835937 0.90171875 27.13140625 1 28 C1.99 28.33 2.98 28.66 4 29 C4 29.66 4 30.32 4 31 C4.99 30.67 5.98 30.34 7 30 C9.89932357 32.39509338 10.50168276 34.31245243 11 38 C9.35 38 7.7 38 6 38 C5.34 41.3 4.68 44.6 4 48 C2.515 48.495 2.515 48.495 1 49 C0.67 55.6 0.34 62.2 0 69 C0.66 69 1.32 69 2 69 C2 70.32 2 71.64 2 73 C2.92232422 72.89171875 2.92232422 72.89171875 3.86328125 72.78125 C4.67152344 72.6884375 5.47976562 72.595625 6.3125 72.5 C7.11300781 72.4071875 7.91351563 72.314375 8.73828125 72.21875 C12.95704832 71.81071726 16.8249703 72.36980684 21 73 C20 75 20 75 18 76 C15.23734992 76.07016254 12.48923369 75.99707242 9.7265625 75.9375 C7.05804842 75.89743651 7.05804842 75.89743651 4.7734375 76.5625 C3 77 3 77 1 76 C1 75.34 1 74.68 1 74 C-0.32 74 -1.64 74 -3 74 C-2.67 65.09 -2.34 56.18 -2 47 C-1.01 47 -0.02 47 1 47 C1 41.72 1 36.44 1 31 C0.01 31 -0.98 31 -2 31 C-2.02690104 28.20826945 -2.04679053 25.41679652 -2.0625 22.625 C-2.07087891 21.8309375 -2.07925781 21.036875 -2.08789062 20.21875 C-2.11328125 14.2265625 -2.11328125 14.2265625 -1 12 C-0.34 12 0.32 12 1 12 C0.649375 10.7625 0.29875 9.525 -0.0625 8.25 C-0.95593273 5.096708 -1.00881294 3.13225836 0 0 Z " fill="#A9200C" transform="translate(55,79)"/>
<path d="M0 0 C1.43113106 4.29339319 -0.54281128 6.99383687 -2.375 10.875 C-5.37015095 17.20964717 -5.37015095 17.20964717 -7 24 C-6.484375 24.226875 -5.96875 24.45375 -5.4375 24.6875 C-2.72070495 26.15038964 -0.46046533 27.93177526 1.92578125 29.87890625 C5.56921201 31.84814284 9.08374575 32.43487151 13.15698242 31.51049805 C15.45261814 30.7689156 17.69127155 29.94212845 19.9375 29.0625 C20.71673828 28.77181641 21.49597656 28.48113281 22.29882812 28.18164062 C24.20453076 27.46846356 26.10305671 26.73615909 28 26 C21.70172505 19.56103303 21.70172505 19.56103303 14.9375 13.625 C13.968125 12.75875 12.99875 11.8925 12 11 C12 10.01 12 9.02 12 8 C14 9 14 9 15.9375 11 C17.92411167 13.21548272 17.92411167 13.21548272 21 14 C21 14.66 21 15.32 21 16 C22.65 16 24.3 16 26 16 C25.505 17.485 25.505 17.485 25 19 C25.99 19 26.98 19 28 19 C28.185625 19.9590625 28.185625 19.9590625 28.375 20.9375 C28.58125 21.618125 28.7875 22.29875 29 23 C29.66 23.33 30.32 23.66 31 24 C31.625 26.5625 31.625 26.5625 32 29 C31.34 29 30.68 29 30 29 C29.67 29.66 29.34 30.32 29 31 C25.78247471 32.60876265 22.28159925 32.39590948 18.7265625 32.62109375 C16.01386743 32.99807286 14.2724042 33.48680918 12 35 C11.18828772 37.55519921 11.18828772 37.55519921 11 40 C8.69 40 6.38 40 4 40 C4.495 37.03 4.495 37.03 5 34 C3.865625 33.731875 2.73125 33.46375 1.5625 33.1875 C0.386875 32.795625 -0.78875 32.40375 -2 32 C-2.33 31.01 -2.66 30.02 -3 29 C-4.65 28.67 -6.3 28.34 -8 28 C-9.85072153 22.85910687 -10.21474076 20.04468729 -8 15 C-7.34 15 -6.68 15 -6 15 C-5.90203125 14.41992188 -5.8040625 13.83984375 -5.703125 13.2421875 C-4.68120485 7.90353568 -3.31626744 4.31114768 0 0 Z " fill="#881B12" transform="translate(76,104)"/>
<path d="M0 0 C0.66 0 1.32 0 2 0 C2 0.66 2 1.32 2 2 C4.97 2 7.94 2 11 2 C11.33 1.34 11.66 0.68 12 0 C12 0.99 12 1.98 12 3 C18.6 3 25.2 3 32 3 C32.33 2.01 32.66 1.02 33 0 C33 1.32 33 2.64 33 4 C26.92594054 5.33885265 21.21415281 4.76964286 15.07617188 4.31640625 C11.29511239 4.06896261 7.77833662 3.92534279 4.02734375 4.53125 C1 5 1 5 -1 4 C-1.144375 4.5775 -1.28875 5.155 -1.4375 5.75 C-1.95833333 7.83333333 -2.47916667 9.91666667 -3 12 C-2.34 12 -1.68 12 -1 12 C-1.01047363 12.85940186 -1.02094727 13.71880371 -1.03173828 14.60424805 C-1.35872832 39.86926349 -1.35872832 39.86926349 1 65 C1.33 65.33 1.66 65.66 2 66 C2.23255814 70.53488372 2.23255814 70.53488372 1 73 C0.34 73 -0.32 73 -1 73 C-1 77.62 -1 82.24 -1 87 C-1.33 87 -1.66 87 -2 87 C-2 81.39 -2 75.78 -2 70 C-1.01 69.505 -1.01 69.505 0 69 C0 68.34 0 67.68 0 67 C-0.66 66.67 -1.32 66.34 -2 66 C-3.0194119 65.01979625 -4.02246356 64.02196992 -5 63 C-4.67 62.01 -4.34 61.02 -4 60 C-3.34 60 -2.68 60 -2 60 C-2.32871094 58.73800781 -2.65742187 57.47601563 -2.99609375 56.17578125 C-4.6436218 47.93814099 -4.17324259 39.5465446 -4.0625 31.1875 C-4.03476448 28.66694375 -4.01008528 26.14644813 -3.99131775 23.62580872 C-3.9791778 22.06755764 -3.96169247 20.50933594 -3.93800354 18.95121765 C-3.90290084 15.14521341 -4.19135726 11.71120484 -5 8 C-4.5625 5.1875 -4.5625 5.1875 -4 3 C-3.01 2.67 -2.02 2.34 -1 2 C-0.67 1.34 -0.34 0.68 0 0 Z " fill="#FAF9F1" transform="translate(54,20)"/>
<path d="M0 0 C0.33 0 0.66 0 1 0 C1 18.48 1 36.96 1 56 C-5 54 -5 54 -7 53 C-8.99960012 52.960008 -11.00047242 52.95653201 -13 53 C-12.01 53.66 -11.02 54.32 -10 55 C-14.82304607 56.95609608 -18.46588472 57.09025088 -23.625 56.625 C-30.97731873 55.99396266 -36.32354171 56.27169902 -43.34375 58.44140625 C-46.12004339 59.02524442 -47.3564638 58.85968657 -50 58 C-51.41366158 57.79104637 -52.83060623 57.60309594 -54.25 57.4375 C-55.4875 57.293125 -56.725 57.14875 -58 57 C-58 56.34 -58 55.68 -58 55 C-49.585 54.505 -49.585 54.505 -41 54 C-41 53.34 -41 52.68 -41 52 C-38.03 52 -35.06 52 -32 52 C-32 51.34 -32 50.68 -32 50 C-30.68 50 -29.36 50 -28 50 C-28 50.99 -28 51.98 -28 53 C-26.68 53 -25.36 53 -24 53 C-24 53.66 -24 54.32 -24 55 C-21.36 54.67 -18.72 54.34 -16 54 C-15.67 52.68 -15.34 51.36 -15 50 C-13.63077961 49.7200705 -12.25389462 49.47754037 -10.875 49.25 C-10.10929687 49.11078125 -9.34359375 48.9715625 -8.5546875 48.828125 C-6 49 -6 49 0 53 C0 35.51 0 18.02 0 0 Z " fill="#892013" transform="translate(188,100)"/>
<path d="M0 0 C6.15234375 -0.09765625 6.15234375 -0.09765625 8 0 C8.33 0.33 8.66 0.66 9 1 C10.47648876 1.09823996 11.95775417 1.12973519 13.4375 1.125 C14.24058594 1.12757813 15.04367188 1.13015625 15.87109375 1.1328125 C18.05397931 1.13578326 18.05397931 1.13578326 20 0 C20.66 0.66 21.32 1.32 22 2 C25.61730283 2.08533125 29.17864672 1.99286865 32.79101562 1.83398438 C38.60855422 1.68867118 38.60855422 1.68867118 40.74633789 3.38891602 C42 5 42 5 42 7 C41.34 7 40.68 7 40 7 C40 7.66 40 8.32 40 9 C34.47322267 9.19392201 30.24385089 8.7479503 25 7 C25 7.66 25 8.32 25 9 C24.01 9.33 23.02 9.66 22 10 C21.608125 9.35546875 21.21625 8.7109375 20.8125 8.046875 C19.17045747 5.80729949 19.17045747 5.80729949 16.625 5.390625 C15.75875 5.34421875 14.8925 5.2978125 14 5.25 C13.13375 5.19328125 12.2675 5.1365625 11.375 5.078125 C9.58411275 5.01921424 7.79185591 5 6 5 C6 4.34 6 3.68 6 3 C5.34 3 4.68 3 4 3 C3.67 3.66 3.34 4.32 3 5 C-1.29 5 -5.58 5 -10 5 C-9.67 3.68 -9.34 2.36 -9 1 C-6.03 1.33 -3.06 1.66 0 2 C0 1.34 0 0.68 0 0 Z " fill="#882419" transform="translate(88,150)"/>
<path d="M0 0 C0 0.66 0 1.32 0 2 C-2.64 2.33 -5.28 2.66 -8 3 C-8.1546875 3.9590625 -8.1546875 3.9590625 -8.3125 4.9375 C-8.539375 5.618125 -8.76625 6.29875 -9 7 C-9.99 7.33 -10.98 7.66 -12 8 C-12.7971422 14.22767341 -13.0946816 20.22858955 -13 26.5 C-12.92366723 35.70503802 -13.3342017 44.82149482 -14 54 C-14.33 54 -14.66 54 -15 54 C-17.83742933 38.92615669 -17.99463837 23.20911757 -16 8 C-16.66 8 -17.32 8 -18 8 C-18 5.69 -18 3.38 -18 1 C-11.7888483 -0.73912248 -6.36846291 -1.16971768 0 0 Z " fill="#BA4332" transform="translate(69,24)"/>
<path d="M0 0 C0.33 0 0.66 0 1 0 C1 17.49 1 34.98 1 53 C-0.65 52.34 -2.3 51.68 -4 51 C-7.57408609 49.7317759 -10.31550868 50.24635405 -14 51 C-14.33 51.99 -14.66 52.98 -15 54 C-17.64 54.33 -20.28 54.66 -23 55 C-22.67 54.34 -22.34 53.68 -22 53 C-21.01 53 -20.02 53 -19 53 C-18.7834375 51.0509375 -18.7834375 51.0509375 -18.5625 49.0625 C-18.125 45.125 -18.125 45.125 -17 44 C-15.33382885 43.95936168 -13.66611905 43.957279 -12 44 C-11.67 45.32 -11.34 46.64 -11 48 C-7.51190809 47.22969878 -7.51190809 47.22969878 -4 46 C-3.67 45.01 -3.34 44.02 -3 43 C-2.34 43.99 -1.68 44.98 -1 46 C-0.67 30.82 -0.34 15.64 0 0 Z " fill="#931508" transform="translate(187,100)"/>
<path d="M0 0 C-0.825 0.433125 -1.65 0.86625 -2.5 1.3125 C-3.325 1.869375 -4.15 2.42625 -5 3 C-5 3.99 -5 4.98 -5 6 C-4.01 6.33 -3.02 6.66 -2 7 C-2 7.99 -2 8.98 -2 10 C-3.32 10 -4.64 10 -6 10 C-6 9.34 -6 8.68 -6 8 C-6.66 8 -7.32 8 -8 8 C-8 8.66 -8 9.32 -8 10 C-12.62 10 -17.24 10 -22 10 C-22 9.01 -22 8.02 -22 7 C-25.04913228 5.98888907 -25.04913228 5.98888907 -28 7 C-28 6.34 -28 5.68 -28 5 C-29.65 4.67 -31.3 4.34 -33 4 C-32.67 3.34 -32.34 2.68 -32 2 C-30.33388095 1.957279 -28.66617115 1.95936168 -27 2 C-26.67 2.33 -26.34 2.66 -26 3 C-23.13732433 3.07325168 -20.299281 3.09238205 -17.4375 3.0625 C-16.22803711 3.05573242 -16.22803711 3.05573242 -14.99414062 3.04882812 C-12.99606244 3.03700518 -10.99802217 3.01906914 -9 3 C-8.67 2.01 -8.34 1.02 -8 0 C-2.25 -1.125 -2.25 -1.125 0 0 Z " fill="#D02B0F" transform="translate(114,22)"/>
<path d="M0 0 C0.99 0 1.98 0 3 0 C3 0.66 3 1.32 3 2 C4.953125 1.47916667 6.90625 0.95833333 8.859375 0.4375 C12.4588321 -0.29815547 15.52338985 0.00668281 19 1 C18.67 1.99 18.34 2.98 18 4 C18.66 4.33 19.32 4.66 20 5 C20 6.32 20 7.64 20 9 C20.99 9.33 21.98 9.66 23 10 C22.67 10.33 22.34 10.66 22 11 C22.66 11.45375 23.32 11.9075 24 12.375 C24.66 12.91125 25.32 13.4475 26 14 C26 14.66 26 15.32 26 16 C26.66 16 27.32 16 28 16 C27.67 16.66 27.34 17.32 27 18 C26.5875 17.62488281 26.175 17.24976562 25.75 16.86328125 C23.86820448 15.19570798 21.94798611 13.58973579 20 12 C19.40960938 11.51273438 18.81921875 11.02546875 18.2109375 10.5234375 C12.95783966 6.70097056 8.16897407 6.37959456 1.7578125 6.23828125 C-1 6 -1 6 -3 4 C-2.34 4 -1.68 4 -1 4 C-0.67 2.68 -0.34 1.36 0 0 Z " fill="#BF2915" transform="translate(68,40)"/>
<path d="M0 0 C7.43438914 4.0678733 7.43438914 4.0678733 10 7 C10.721875 7.721875 11.44375 8.44375 12.1875 9.1875 C12.785625 9.785625 13.38375 10.38375 14 11 C11 12 11 12 8 12 C4.83927895 13.25944653 4.83927895 13.25944653 3 16 C3.66 16 4.32 16 5 16 C8.125 22.625 8.125 22.625 7 26 C5.08122455 23.93942825 3.16494202 21.87662937 1.25 19.8125 C0.71117188 19.23435547 0.17234375 18.65621094 -0.3828125 18.06054688 C-3.39798091 14.80637122 -6.27781799 11.50844332 -9 8 C-6 8 -6 8 -4 9 C-4 9.66 -4 10.32 -4 11 C-2.16299211 11.77242269 -2.16299211 11.77242269 0 12 C1.66666667 10.66666667 1.66666667 10.66666667 3 9 C3.66 8.67 4.32 8.34 5 8 C5 7.01 5 6.02 5 5 C3.35178756 3.96986723 1.68496298 2.96885372 0 2 C0 1.34 0 0.68 0 0 Z " fill="#F6F3ED" transform="translate(85,50)"/>
<path d="M0 0 C0.33 0 0.66 0 1 0 C1.02687279 1.81242052 1.04633715 3.62495233 1.0625 5.4375 C1.07410156 6.44683594 1.08570313 7.45617187 1.09765625 8.49609375 C1 11 1 11 0 12 C-0.15655027 13.48638992 -0.25066943 14.97949127 -0.31640625 16.47265625 C-0.35830078 17.37177734 -0.40019531 18.27089844 -0.44335938 19.19726562 C-0.48267578 20.14279297 -0.52199219 21.08832031 -0.5625 22.0625 C-0.60568359 23.01189453 -0.64886719 23.96128906 -0.69335938 24.93945312 C-0.79979276 27.29281353 -0.90181008 29.64628354 -1 32 C-0.34 32 0.32 32 1 32 C1 33.32 1 34.64 1 36 C1.92232422 35.89171875 1.92232422 35.89171875 2.86328125 35.78125 C3.67152344 35.6884375 4.47976562 35.595625 5.3125 35.5 C6.11300781 35.4071875 6.91351563 35.314375 7.73828125 35.21875 C11.95704832 34.81071726 15.8249703 35.36980684 20 36 C19 38 19 38 17 39 C14.23734992 39.07016254 11.48923369 38.99707242 8.7265625 38.9375 C6.05804842 38.89743651 6.05804842 38.89743651 3.7734375 39.5625 C2 40 2 40 0 39 C0 38.34 0 37.68 0 37 C-1.32 37 -2.64 37 -4 37 C-3.67 28.09 -3.34 19.18 -3 10 C-2.01 10 -1.02 10 0 10 C0 6.7 0 3.4 0 0 Z " fill="#883328" transform="translate(56,116)"/>
<path d="M0 0 C0.66 0 1.32 0 2 0 C2 0.99 2 1.98 2 3 C2.54398438 2.82984375 3.08796875 2.6596875 3.6484375 2.484375 C6.43020808 1.91138571 8.7960887 2.02124706 11.625 2.25 C12.58664063 2.31703125 13.54828125 2.3840625 14.5390625 2.453125 C17 3 17 3 19 6 C16.41583797 7.29208102 15.76017944 6.74599444 13 6 C10.66752239 5.66073053 8.33414529 5.32759934 6 5 C4.81627808 4.73328491 4.81627808 4.73328491 3.60864258 4.46118164 C0.86582885 3.9762799 -1.52255168 3.97487114 -4.30078125 4.12109375 C-5.76547852 4.19360352 -5.76547852 4.19360352 -7.25976562 4.26757812 C-8.26716797 4.32365234 -9.27457031 4.37972656 -10.3125 4.4375 C-11.85260742 4.51581055 -11.85260742 4.51581055 -13.42382812 4.59570312 C-15.94956087 4.72492666 -18.47485261 4.85987291 -21 5 C-21.309375 5.61875 -21.61875 6.2375 -21.9375 6.875 C-22.625 8.25 -23.3125 9.625 -24 11 C-26.31 11 -28.62 11 -31 11 C-31.33 9.68 -31.66 8.36 -32 7 C-30.35 6.67 -28.7 6.34 -27 6 C-26.67 4.68 -26.34 3.36 -26 2 C-17.42 2 -8.84 2 0 2 C0 1.34 0 0.68 0 0 Z " fill="#C23119" transform="translate(167,21)"/>
<path d="M0 0 C2 1 2 1 3.9375 3 C5.92411167 5.21548272 5.92411167 5.21548272 9 6 C9 6.66 9 7.32 9 8 C10.65 8 12.3 8 14 8 C13.67 8.99 13.34 9.98 13 11 C13.99 11 14.98 11 16 11 C16.12375 11.639375 16.2475 12.27875 16.375 12.9375 C16.58125 13.618125 16.7875 14.29875 17 15 C17.66 15.33 18.32 15.66 19 16 C19.625 18.5625 19.625 18.5625 20 21 C19.34 21 18.68 21 18 21 C17.67 21.66 17.34 22.32 17 23 C13.828262 24.585869 10.36486178 24.37866445 6.875 24.5625 C6.12089844 24.60568359 5.36679688 24.64886719 4.58984375 24.69335938 C2.72678112 24.7994832 0.86341476 24.90025001 -1 25 C2.25448097 22.83034602 5.5253585 21.63856738 9.1875 20.375 C10.16879883 20.03082031 10.16879883 20.03082031 11.16992188 19.6796875 C12.77864135 19.11604856 14.38914977 18.55752016 16 18 C9.70172505 11.56103303 9.70172505 11.56103303 2.9375 5.625 C1.968125 4.75875 0.99875 3.8925 0 3 C0 2.01 0 1.02 0 0 Z " fill="#951C12" transform="translate(88,112)"/>
<path d="M0 0 C3.74020498 1.68152073 5.56134348 3.69039473 8 7 C7.01 7.495 7.01 7.495 6 8 C5.566875 7.525625 5.13375 7.05125 4.6875 6.5625 C2.97690387 4.76313043 2.97690387 4.76313043 0 4 C0.04640625 4.59167969 0.0928125 5.18335937 0.140625 5.79296875 C0.44121572 12.37375834 0.44121572 12.37375834 -1.9375 15.75 C-2.618125 16.4925 -3.29875 17.235 -4 18 C-4.78946609 20.68507329 -4.78946609 20.68507329 -5 23 C-4.443125 23.0825 -3.88625 23.165 -3.3125 23.25 C-0.26322081 24.23895541 1.65189963 25.84757466 4 28 C4 28.66 4 29.32 4 30 C5.98 30.33 7.96 30.66 10 31 C7.21200279 32.17953728 6.11633482 32.04494754 3.25 30.9375 C-0.72982128 28.56491424 -4.35765396 25.85656073 -8 23 C-7.51928438 16.93350424 -6.15614116 12.41574853 -3.4375 7 C-3.10814453 6.32066406 -2.77878906 5.64132813 -2.43945312 4.94140625 C-1.63662717 3.28921371 -0.81978216 1.64384516 0 0 Z " fill="#FBF3EE" transform="translate(77,105)"/>
<path d="M0 0 C0.72445312 0.0721875 1.44890625 0.144375 2.1953125 0.21875 C10.93392239 1.22640927 10.93392239 1.22640927 19.625 0.4375 C22.24466719 -0.04507027 23.47329868 0.25685255 26 1 C27.7325 1.1546875 27.7325 1.1546875 29.5 1.3125 C33.41178623 2.08088658 34.489249 3.02429512 37 6 C37.66 6.33 38.32 6.66 39 7 C37.125 7.625 37.125 7.625 35 8 C34.34 7.34 33.68 6.68 33 6 C27.83880996 5.73130925 27.83880996 5.73130925 22.8125 6.625 C20.11659694 7.18277305 18.49127635 6.10079653 16 5 C12.5546888 3.59884432 12.5546888 3.59884432 9 3 C6.09075658 4.22598645 6.09075658 4.22598645 4 6 C2.62437146 4.71034824 1.29233607 3.37310707 0 2 C0 1.34 0 0.68 0 0 Z " fill="#FBF5F2" transform="translate(74,153)"/>
<path d="M0 0 C0.66 0 1.32 0 2 0 C2 0.66 2 1.32 2 2 C4.97 2 7.94 2 11 2 C11.33 1.34 11.66 0.68 12 0 C12 0.99 12 1.98 12 3 C18.6 3 25.2 3 32 3 C32.33 2.01 32.66 1.02 33 0 C33 1.32 33 2.64 33 4 C26.92594054 5.33885265 21.21415281 4.76964286 15.07617188 4.31640625 C11.29511239 4.06896261 7.77833662 3.92534279 4.02734375 4.53125 C1 5 1 5 -1 4 C-1.144375 4.5775 -1.28875 5.155 -1.4375 5.75 C-1.95833333 7.83333333 -2.47916667 9.91666667 -3 12 C-2.34 12 -1.68 12 -1 12 C-0.94570041 13.74965358 -0.90707177 15.49979787 -0.875 17.25 C-0.85179687 18.22453125 -0.82859375 19.1990625 -0.8046875 20.203125 C-1.00137219 23.0196498 -1.55431084 24.60949036 -3 27 C-3.06058594 26.04738281 -3.12117188 25.09476563 -3.18359375 24.11328125 C-3.26738281 22.85902344 -3.35117187 21.60476562 -3.4375 20.3125 C-3.51871094 19.07113281 -3.59992187 17.82976563 -3.68359375 16.55078125 C-3.92419685 13.11129044 -3.92419685 13.11129044 -4.5625 10.21875 C-5.08721749 7.55768272 -4.66988719 5.60511683 -4 3 C-3.01 2.67 -2.02 2.34 -1 2 C-0.67 1.34 -0.34 0.68 0 0 Z " fill="#FAE1D6" transform="translate(54,20)"/>
<path d="M0 0 C0.66 0 1.32 0 2 0 C2.02900455 3.6041498 2.04680018 7.20826962 2.0625 10.8125 C2.07087891 11.83666016 2.07925781 12.86082031 2.08789062 13.91601562 C2.09111328 14.89892578 2.09433594 15.88183594 2.09765625 16.89453125 C2.10289307 17.80050049 2.10812988 18.70646973 2.11352539 19.63989258 C2 22 2 22 1 25 C4.43515002 25.62457273 7.49064814 26 11 26 C14.66666667 26 18.33333333 26 22 26 C22 26.33 22 26.66 22 27 C20.20994059 27.36220266 18.41787943 27.71452469 16.625 28.0625 C15.12839844 28.35833984 15.12839844 28.35833984 13.6015625 28.66015625 C11 29 11 29 9 28 C9 28.66 9 29.32 9 30 C8.01 30.33 7.02 30.66 6 31 C5.34 30.01 4.68 29.02 4 28 C2.34178227 27.62690101 0.67422986 27.29299023 -1 27 C-1.66 26.34 -2.32 25.68 -3 25 C-2.67128906 24.36449219 -2.34257813 23.72898438 -2.00390625 23.07421875 C-0.64761271 18.92089961 -0.82335634 15.14650029 -0.9375 10.8125 C-1.11962264 2.23924528 -1.11962264 2.23924528 0 0 Z " fill="#FCF1EA" transform="translate(51,128)"/>
<path d="M0 0 C2.77141717 -0.08089542 5.54047819 -0.14044062 8.3125 -0.1875 C9.09818359 -0.21263672 9.88386719 -0.23777344 10.69335938 -0.26367188 C11.45068359 -0.27333984 12.20800781 -0.28300781 12.98828125 -0.29296875 C14.03302612 -0.31653442 14.03302612 -0.31653442 15.09887695 -0.34057617 C17.58237578 0.10432955 18.47101992 1.03357086 20 3 C20 3.66 20 4.32 20 5 C19.34 5 18.68 5 18 5 C18 5.66 18 6.32 18 7 C11.84765625 7.09765625 11.84765625 7.09765625 10 7 C9.67 6.67 9.34 6.34 9 6 C7.48530552 5.76807135 5.96245438 5.58784762 4.4375 5.4375 C3.61121094 5.35371094 2.78492187 5.26992187 1.93359375 5.18359375 C1.29550781 5.12300781 0.65742187 5.06242188 0 5 C0 3.35 0 1.7 0 0 Z " fill="#901707" transform="translate(110,152)"/>
<path d="M0 0 C2.31 0.33 4.62 0.66 7 1 C7 1.99 7 2.98 7 4 C7.66 4 8.32 4 9 4 C9 4.66 9 5.32 9 6 C9.99 6.33 10.98 6.66 12 7 C12 8.65 12 10.3 12 12 C11.34 12 10.68 12 10 12 C10.03480469 12.75925781 10.06960937 13.51851562 10.10546875 14.30078125 C10.13253906 15.29464844 10.15960938 16.28851563 10.1875 17.3125 C10.22230469 18.29863281 10.25710937 19.28476563 10.29296875 20.30078125 C10 23 10 23 8.48828125 24.85546875 C7.99714844 25.23316406 7.50601563 25.61085938 7 26 C5.68 25.34 4.36 24.68 3 24 C3.66 24 4.32 24 5 24 C5.27603012 21.08368173 5.52158705 18.17010285 5.75 15.25 C5.87181641 14.0125 5.87181641 14.0125 5.99609375 12.75 C6.44095291 7.79399246 6.44095291 7.79399246 4.140625 3.546875 C3.43421875 3.03640625 2.7278125 2.5259375 2 2 C1.34 1.34 0.68 0.68 0 0 Z " fill="#B53823" transform="translate(155,46)"/>
<path d="M0 0 C0.33 1.32 0.66 2.64 1 4 C6.28 4 11.56 4 17 4 C17 4.33 17 4.66 17 5 C12.05 5 7.1 5 2 5 C1.67 6.65 1.34 8.3 1 10 C-0.98 10 -2.96 10 -5 10 C-5.35191406 9.04867188 -5.35191406 9.04867188 -5.7109375 8.078125 C-6.82290908 5.81749261 -6.82290908 5.81749261 -9.1640625 5.171875 C-10.38222656 4.96304687 -10.38222656 4.96304687 -11.625 4.75 C-12.44226563 4.60046875 -13.25953125 4.4509375 -14.1015625 4.296875 C-14.72804688 4.19890625 -15.35453125 4.1009375 -16 4 C-12.67192599 1.78128399 -11.79509218 2 -8 2 C-4.77208445 -0.1519437 -3.71599191 -0.20086443 0 0 Z " fill="#F5D8CE" transform="translate(139,18)"/>
<path d="M0 0 C0.33 0.66 0.66 1.32 1 2 C1.5775 2.268125 2.155 2.53625 2.75 2.8125 C6.77579979 4.93722767 9.56039028 7.68117084 11 12 C11.99 12.33 12.98 12.66 14 13 C14 13.66 14 14.32 14 15 C14.66 15 15.32 15 16 15 C17.28788243 16.47144268 18.50570327 18.0045715 19.6875 19.5625 C23.18784232 24.05566668 26.88610124 28.07357005 31 32 C32.00248446 32.99750935 33.00273596 33.9972715 34 35 C34.66 35.66 35.32 36.32 36 37 C35.01 37.495 35.01 37.495 34 38 C30.73464596 36.80726589 29.22545529 35.28108219 27.3125 32.4375 C23.13062963 26.59565055 17.94167616 21.76982566 12.7265625 16.859375 C11 15 11 15 11 13 C10.1028125 12.566875 10.1028125 12.566875 9.1875 12.125 C7 11 7 11 4 9 C4 7.68 4 6.36 4 5 C2.68 4.67 1.36 4.34 0 4 C0 2.68 0 1.36 0 0 Z " fill="#9F2B21" transform="translate(113,97)"/>
<path d="M0 0 C-0.99 0 -1.98 0 -3 0 C-3.66 1.98 -4.32 3.96 -5 6 C-4.34 6 -3.68 6 -3 6 C-3 6.66 -3 7.32 -3 8 C-1.68 7.67 -0.36 7.34 1 7 C1.79953138 10.28696233 2.09658936 11.71023192 1 15 C-0.24716797 14.06027344 -0.24716797 14.06027344 -1.51953125 13.1015625 C-2.61715542 12.27599902 -3.71481345 11.45048054 -4.8125 10.625 C-5.35970703 10.2125 -5.90691406 9.8 -6.47070312 9.375 C-8.94446605 7.51592968 -11.42434959 5.71710028 -14 4 C-14 3.34 -14 2.68 -14 2 C-12.42085985 1.46658816 -10.83645613 0.94874237 -9.25 0.4375 C-8.36828125 0.14746094 -7.4865625 -0.14257812 -6.578125 -0.44140625 C-3.92165684 -1.01697435 -2.52968894 -0.89248371 0 0 Z " fill="#F4F3F1" transform="translate(148,49)"/>
<path d="M0 0 C4 0 4 0 6.4375 2.3125 C7.283125 3.199375 8.12875 4.08625 9 5 C10.63377642 6.05287814 12.29181597 7.0727001 14 8 C14.33 7.01 14.66 6.02 15 5 C17.83967231 5 20.23735711 5.40267181 23 6 C22.01 6.495 22.01 6.495 21 7 C21.66 9.31 22.32 11.62 23 14 C24.32 14.33 25.64 14.66 27 15 C27.33 16.32 27.66 17.64 28 19 C24.19866088 17.62173669 21.07342282 15.86657777 17.734375 13.59375 C16.76242188 12.93246094 15.79046875 12.27117187 14.7890625 11.58984375 C13.78617188 10.90019531 12.78328125 10.21054688 11.75 9.5 C10.73164062 8.81035156 9.71328125 8.12070313 8.6640625 7.41015625 C1.12761208 2.25522416 1.12761208 2.25522416 0 0 Z " fill="#B82811" transform="translate(112,67)"/>
<path d="M0 0 C1.875 0.25 1.875 0.25 4 1 C5.25 3.0625 5.25 3.0625 6 5 C5.2884375 5.556875 5.2884375 5.556875 4.5625 6.125 C2.40731273 8.71122472 2.26140181 10.66712692 2 14 C2.37617294 17.26410357 2.37617294 17.26410357 3 20 C4.65 20 6.3 20 8 20 C8.33 21.32 8.66 22.64 9 24 C7.68 24 6.36 24 5 24 C4.67 23.34 4.34 22.68 4 22 C3.01 22 2.02 22 1 22 C-2.07030602 15.98220021 -2.14495465 12.45260142 -0.4375 5.8125 C0.15642702 3.66270423 0.15642702 3.66270423 0 0 Z " fill="#A61E0C" transform="translate(65,112)"/>
<path d="M0 0 C0 0.33 0 0.66 0 1 C2.64 1 5.28 1 8 1 C7.67 1.66 7.34 2.32 7 3 C6.34 3 5.68 3 5 3 C5.99 3.99 6.98 4.98 8 6 C7.67 6.66 7.34 7.32 7 8 C6.34 7.67 5.68 7.34 5 7 C0.52326748 6.82781798 -3.60598974 7.14263214 -8 8 C-8 5.69 -8 3.38 -8 1 C-3.375 -1.125 -3.375 -1.125 0 0 Z " fill="#CF2712" transform="translate(152,39)"/>
<path d="M0 0 C0 0.66 0 1.32 0 2 C-2.64 2.33 -5.28 2.66 -8 3 C-8.1546875 3.9590625 -8.1546875 3.9590625 -8.3125 4.9375 C-8.539375 5.618125 -8.76625 6.29875 -9 7 C-9.99 7.33 -10.98 7.66 -12 8 C-13.20882096 10.00016466 -13.20882096 10.00016466 -14 12 C-14 10.68 -14 9.36 -14 8 C-15.32 8 -16.64 8 -18 8 C-18 5.69 -18 3.38 -18 1 C-11.7888483 -0.73912248 -6.36846291 -1.16971768 0 0 Z " fill="#C83119" transform="translate(69,24)"/>
<path d="M0 0 C0 3.96 0 7.92 0 12 C-1.32 12.33 -2.64 12.66 -4 13 C-4 10.69 -4 8.38 -4 6 C-6.64 5.67 -9.28 5.34 -12 5 C-12.33 3.68 -12.66 2.36 -13 1 C-8.31506124 -1.48887372 -5.0555786 -0.85687773 0 0 Z " fill="#C7260B" transform="translate(188,27)"/>
<path d="M0 0 C1.32 0 2.64 0 4 0 C4.33 0.66 4.66 1.32 5 2 C6.97522846 3.04808041 8.97481509 4.0520411 11 5 C11 5.66 11 6.32 11 7 C11.5465625 7.25652344 12.093125 7.51304688 12.65625 7.77734375 C16.39037915 9.72531446 19.83248251 12.12146166 23.34375 14.44140625 C25.83646873 16.08188278 25.83646873 16.08188278 28.28125 16.52734375 C28.8484375 16.68332031 29.415625 16.83929688 30 17 C30.33 17.99 30.66 18.98 31 20 C30.34 20 29.68 20 29 20 C29.33 20.99 29.66 21.98 30 23 C30.12781786 25.67394964 30.04391871 28.32095857 30 31 C29.34 31.33 28.68 31.66 28 32 C27.16839743 28.67358971 27.0588465 26.53658383 27.5 23.0625 C27.64055366 20.98379506 27.64055366 20.98379506 27 19 C23.62654783 15.71323182 19.66697106 13.65323975 15.30859375 11.9453125 C12.47255163 10.78402283 11.17174037 9.17174037 9 7 C6.64243697 5.36689644 4.24680672 3.81046557 1.828125 2.26953125 C1.22484375 1.85058594 0.6215625 1.43164062 0 1 C0 0.67 0 0.34 0 0 Z " fill="#962B1E" transform="translate(144,89)"/>
<path d="M0 0 C5.23435005 4.27293882 9.67106815 8.81580806 14 14 C12.68 14.33 11.36 14.66 10 15 C9.34 14.01 8.68 13.02 8 12 C6.15274948 11.30840599 6.15274948 11.30840599 4 11 C3.0925 10.814375 2.185 10.62875 1.25 10.4375 C0.5075 10.293125 -0.235 10.14875 -1 10 C-1.125 2.25 -1.125 2.25 0 0 Z " fill="#A51F0C" transform="translate(129,117)"/>
<path d="M0 0 C0.33 0 0.66 0 1 0 C1.50850674 4.98336602 1.14002459 8.69417348 -1.890625 12.6875 C-6.6826854 15.66922647 -13.55579995 14.43142717 -19 14 C-19.33 13.01 -19.66 12.02 -20 11 C-15.38 11 -10.76 11 -6 11 C-4.02 7.37 -2.04 3.74 0 0 Z " fill="#8C372A" transform="translate(170,123)"/>
<path d="M0 0 C0.33 0 0.66 0 1 0 C1.33 11.88 1.66 23.76 2 36 C-2.51309054 31.48690946 -1.80764634 24.02307412 -2 18 C-1.94649805 14.91159987 -1.80415847 11.83348007 -1.625 8.75 C-1.58197754 7.99895996 -1.53895508 7.24791992 -1.49462891 6.47412109 C-1.1333136 1.1333136 -1.1333136 1.1333136 0 0 Z " fill="#9E200B" transform="translate(185,112)"/>
<path d="M0 0 C0.99 0 1.98 0 3 0 C3 0.66 3 1.32 3 2 C4.953125 1.47916667 6.90625 0.95833333 8.859375 0.4375 C11 0 11 0 15 0 C15.99 0.66 16.98 1.32 18 2 C14.535 3.485 14.535 3.485 11 5 C11 5.33 11 5.66 11 6 C9.04196493 6.05389087 7.08351091 6.09274217 5.125 6.125 C4.03445312 6.14820313 2.94390625 6.17140625 1.8203125 6.1953125 C-1 6 -1 6 -3 4 C-2.34 4 -1.68 4 -1 4 C-0.67 2.68 -0.34 1.36 0 0 Z " fill="#CD2F1A" transform="translate(68,40)"/>
<path d="M0 0 C0.12375 0.928125 0.12375 0.928125 0.25 1.875 C0.81258459 4.18437567 0.81258459 4.18437567 3.0625 5.25 C3.701875 5.4975 4.34125 5.745 5 6 C3.80375 5.979375 2.6075 5.95875 1.375 5.9375 C-2.18391334 5.94382134 -5.52478812 6.15238735 -9 7 C-9.33 7.66 -9.66 8.32 -10 9 C-10.99 8.67 -11.98 8.34 -13 8 C-10.64175733 0.72875178 -7.4631798 -0.43056807 0 0 Z " fill="#FAF3EF" transform="translate(115,16)"/>
<path d="M0 0 C0.68359375 1.640625 0.68359375 1.640625 1 4 C-0.21484375 6.796875 -0.21484375 6.796875 -1.9375 9.75 C-2.50339844 10.73484375 -3.06929687 11.7196875 -3.65234375 12.734375 C-4.09707031 13.48203125 -4.54179687 14.2296875 -5 15 C-12.09629025 15.31461385 -17.68284595 15.44572039 -24 12 C-24 11.67 -24 11.34 -24 11 C-22.27054347 11.14235457 -20.54144346 11.28904382 -18.8125 11.4375 C-17.36810547 11.55931641 -17.36810547 11.55931641 -15.89453125 11.68359375 C-13.21350398 11.97666151 -10.6337014 12.42703754 -8 13 C-7.54625 12.38125 -7.0925 11.7625 -6.625 11.125 C-5 9 -5 9 -3 7 C-1.96157435 4.68351201 -0.9578025 2.35096976 0 0 Z " fill="#F8E6DD" transform="translate(169,120)"/>
<path d="M0 0 C0.33 0 0.66 0 1 0 C1 18.48 1 36.96 1 56 C-0.98 55.34 -2.96 54.68 -5 54 C-4.67 53.34 -4.34 52.68 -4 52 C-2.68 52.33 -1.36 52.66 0 53 C0 35.51 0 18.02 0 0 Z " fill="#AC6F67" transform="translate(188,100)"/>
<path d="M0 0 C3.0625 2 3.0625 2 5 4 C4.01 5.485 4.01 5.485 3 7 C2.01 6.67 1.02 6.34 0 6 C-0.33 4.35 -0.66 2.7 -1 1 C-3.31 1.66 -5.62 2.32 -8 3 C-5.525 5.97 -5.525 5.97 -3 9 C-3.99 9.66 -4.98 10.32 -6 11 C-7.03295436 9.90716423 -8.05107835 8.80029421 -9.0625 7.6875 C-9.63097656 7.07261719 -10.19945313 6.45773438 -10.78515625 5.82421875 C-11.38650391 4.92123047 -11.38650391 4.92123047 -12 4 C-11.67 3.01 -11.34 2.02 -11 1 C-7.54765812 -0.72617094 -3.77455234 -0.50110436 0 0 Z " fill="#FCE9DF" transform="translate(80,46)"/>
<path d="M0 0 C4.62529977 0.87893163 9.21001807 0.71401442 13.8984375 0.55078125 C14.2284375 1.21078125 14.5584375 1.87078125 14.8984375 2.55078125 C11.93722742 3.40458553 9.2896731 3.68595889 6.2109375 3.67578125 C5.42332031 3.67835938 4.63570312 3.6809375 3.82421875 3.68359375 C1.8984375 3.55078125 1.8984375 3.55078125 0.8984375 2.55078125 C-1.37720959 2.73210771 -3.61554538 3.07070062 -5.875 3.39453125 C-8.1015625 3.55078125 -8.1015625 3.55078125 -11.1015625 2.55078125 C-13.73960839 2.9447546 -13.73960839 2.9447546 -16.1015625 3.55078125 C-16.1015625 2.89078125 -16.1015625 2.23078125 -16.1015625 1.55078125 C-10.01944548 -1.4328988 -6.54641527 -1.49448976 0 0 Z " fill="#F6E7DC" transform="translate(162.1015625,155.44921875)"/>
<path d="M0 0 C1.9375 0.375 1.9375 0.375 4 1 C4.33 1.66 4.66 2.32 5 3 C3.42274653 3.70133599 1.83788667 4.385583 0.25 5.0625 C-1.07257813 5.63677734 -1.07257813 5.63677734 -2.421875 6.22265625 C-5.24574752 7.0740966 -6.27076124 6.92441958 -9 6 C-10.41366158 5.79104637 -11.83060623 5.60309594 -13.25 5.4375 C-14.4875 5.293125 -15.725 5.14875 -17 5 C-17 4.34 -17 3.68 -17 3 C-8.585 2.505 -8.585 2.505 0 2 C0 1.34 0 0.68 0 0 Z " fill="#923933" transform="translate(147,152)"/>
<path d="M0 0 C0.80824219 0.10183594 1.61648437 0.20367187 2.44921875 0.30859375 C3.06410156 0.39238281 3.67898437 0.47617188 4.3125 0.5625 C3.9825 1.2225 3.6525 1.8825 3.3125 2.5625 C2.6525 2.5625 1.9925 2.5625 1.3125 2.5625 C0.9825 4.2125 0.6525 5.8625 0.3125 7.5625 C-1.9975 7.5625 -4.3075 7.5625 -6.6875 7.5625 C-6.3575 5.5825 -6.0275 3.6025 -5.6875 1.5625 C-6.3475 1.2325 -7.0075 0.9025 -7.6875 0.5625 C-4.59271121 -0.46909626 -3.16118607 -0.41232862 0 0 Z " fill="#971C0B" transform="translate(86.6875,136.4375)"/>
<path d="M0 0 C0.28875 0.639375 0.5775 1.27875 0.875 1.9375 C1.82823451 4.15206079 1.82823451 4.15206079 4 5 C5.48329014 11.80074536 5.1184124 19.07945318 5 26 C3.35 26 1.7 26 0 26 C0 25.34 0 24.68 0 24 C0.66 24 1.32 24 2 24 C2.33264014 14.80730426 2.33264014 14.80730426 0 6 C-0.6875 3.1875 -0.6875 3.1875 -1 1 C-0.67 0.67 -0.34 0.34 0 0 Z " fill="#F2C4BD" transform="translate(184,74)"/>
<path d="M0 0 C0.33 0 0.66 0 1 0 C1 3.3 1 6.6 1 10 C2.32 10.33 3.64 10.66 5 11 C7.75 12.9375 7.75 12.9375 10 15 C10 15.66 10 16.32 10 17 C11.98 17.33 13.96 17.66 16 18 C13.21200279 19.17953728 12.11633482 19.04494754 9.25 17.9375 C5.27017872 15.56491424 1.64234604 12.85656073 -2 10 C-1.125 2.25 -1.125 2.25 0 0 Z " fill="#F2DBD1" transform="translate(71,118)"/>
<path d="M0 0 C3.35620271 1.38877354 5.07298728 2.91677965 7 6 C7 6.66 7 7.32 7 8 C8.3921875 8.0309375 8.3921875 8.0309375 9.8125 8.0625 C10.864375 8.371875 11.91625 8.68125 13 9 C14.75 12.4375 14.75 12.4375 16 16 C16.66 16.66 17.32 17.32 18 18 C17.01 18.33 16.02 18.66 15 19 C14.5875 18.52691406 14.175 18.05382812 13.75 17.56640625 C13.1725 16.90511719 12.595 16.24382812 12 15.5625 C11.05447266 14.47775391 11.05447266 14.47775391 10.08984375 13.37109375 C8.6582906 11.74688298 7.21216327 10.13543482 5.75390625 8.53515625 C5.03074219 7.73980469 4.30757812 6.94445312 3.5625 6.125 C2.54349609 5.01511719 2.54349609 5.01511719 1.50390625 3.8828125 C0 2 0 2 0 0 Z " fill="#FAEEE6" transform="translate(129,112)"/>
<path d="M0 0 C0.72445312 0.0721875 1.44890625 0.144375 2.1953125 0.21875 C7.14821569 0.69422871 12.01834913 1.12454127 17 1 C17.99 1 18.98 1 20 1 C20 2.32 20 3.64 20 5 C16.70388848 5.15330751 14.46374324 5.2149054 11.4375 3.8125 C8.88971626 2.64692104 8.88971626 2.64692104 6.1875 4.375 C5.465625 4.91125 4.74375 5.4475 4 6 C2.62437146 4.71034824 1.29233607 3.37310707 0 2 C0 1.34 0 0.68 0 0 Z " fill="#F2DFDD" transform="translate(74,153)"/>
<path d="M0 0 C-1 3 -1 3 -3 4 C-11.39097744 4.40601504 -11.39097744 4.40601504 -15 2 C-10.19321542 -2.00565382 -5.77107298 -0.93009526 0 0 Z " fill="#D62A0C" transform="translate(123,23)"/>
<path d="M0 0 C2.31 0.33 4.62 0.66 7 1 C6.67 2.98 6.34 4.96 6 7 C6.66 7 7.32 7 8 7 C7.67 7.99 7.34 8.98 7 10 C6.34 9.34 5.68 8.68 5 8 C4.01 8.99 3.02 9.98 2 11 C1.664061 9.5422647 1.33133376 8.08378894 1 6.625 C0.814375 5.81289062 0.62875 5.00078125 0.4375 4.1640625 C0 2 0 2 0 0 Z " fill="#F6EDE8" transform="translate(184,69)"/>
<path d="M0 0 C0.9075 0.61875 1.815 1.2375 2.75 1.875 C7.04641518 4.9180642 7.04641518 4.9180642 12 6 C11.67 7.65 11.34 9.3 11 11 C10.38125 10.67 9.7625 10.34 9.125 10 C6.05494623 8.55526881 4.18176533 9.15152924 1 10 C-0.08209949 6.75370153 0.21859125 6.12563502 1 3 C0.67 2.01 0.34 1.02 0 0 Z " fill="#B03524" transform="translate(145,61)"/>
<path d="M0 0 C0.66 0 1.32 0 2 0 C2 0.99 2 1.98 2 3 C2.54398438 2.82984375 3.08796875 2.6596875 3.6484375 2.484375 C6.43020808 1.91138571 8.7960887 2.02124706 11.625 2.25 C12.58664063 2.31703125 13.54828125 2.3840625 14.5390625 2.453125 C17 3 17 3 19 6 C16.41583797 7.29208102 15.76017944 6.74599444 13 6 C11.42818744 5.76590026 9.8559116 5.53441123 8.28125 5.3203125 C3.1792508 4.6039359 -1.908741 3.78857094 -7 3 C-7 2.67 -7 2.34 -7 2 C-4.69 2 -2.38 2 0 2 C0 1.34 0 0.68 0 0 Z " fill="#BA4D3D" transform="translate(167,21)"/>
<path d="M0 0 C1.53202706 0.25195908 3.05257128 0.57596777 4.5625 0.9375 C5.80193359 1.22947266 5.80193359 1.22947266 7.06640625 1.52734375 C7.70449219 1.68332031 8.34257813 1.83929688 9 2 C8 4 8 4 6 5 C3.23734992 5.07016254 0.48923369 4.99707242 -2.2734375 4.9375 C-4.94195158 4.89743651 -4.94195158 4.89743651 -7.2265625 5.5625 C-9 6 -9 6 -11 5 C-10.67 4.01 -10.34 3.02 -10 2 C-9.04287109 1.90912109 -9.04287109 1.90912109 -8.06640625 1.81640625 C-6.82697266 1.69072266 -6.82697266 1.69072266 -5.5625 1.5625 C-4.73878906 1.48128906 -3.91507813 1.40007812 -3.06640625 1.31640625 C-1.01337975 1.21069185 -1.01337975 1.21069185 0 0 Z " fill="#80241A" transform="translate(67,150)"/>
<path d="M0 0 C1.8125 0.1875 1.8125 0.1875 4 1 C5.05589069 2.63183107 6.0436126 4.30792999 7 6 C8.92970392 8.39600769 10.95426463 10.70268552 13 13 C12.01 13.495 12.01 13.495 11 14 C11 13.34 11 12.68 11 12 C8.03 11.01 5.06 10.02 2 9 C1.855625 7.88625 1.71125 6.7725 1.5625 5.625 C1.21627965 2.17857953 1.21627965 2.17857953 0 0 Z " fill="#AD3122" transform="translate(100,84)"/>
<path d="M0 0 C3.62276315 1.3255581 6.63505348 2.94346955 9.8125 5.125 C10.60269531 5.66382812 11.39289063 6.20265625 12.20703125 6.7578125 C12.79871094 7.16773437 13.39039062 7.57765625 14 8 C13.67 8.66 13.34 9.32 13 10 C12.4225 9.814375 11.845 9.62875 11.25 9.4375 C8.79307475 8.95976454 7.35602466 9.24270636 5 10 C5 9.01 5 8.02 5 7 C4.34 6.67 3.68 6.34 3 6 C3 5.34 3 4.68 3 4 C2.34 4 1.68 4 1 4 C0.67 2.68 0.34 1.36 0 0 Z " fill="#F7ECE4" transform="translate(114,70)"/>
<path d="M0 0 C1.32 0 2.64 0 4 0 C4 0.66 4 1.32 4 2 C7.66305234 2.74926071 10.42355152 3.2380014 14 2 C14 3.32 14 4.64 14 6 C13.34 6 12.68 6 12 6 C12 6.99 12 7.98 12 9 C10.68 8.34 9.36 7.68 8 7 C8 6.34 8 5.68 8 5 C6.8553125 4.814375 6.8553125 4.814375 5.6875 4.625 C3 4 3 4 0 2 C0 1.34 0 0.68 0 0 Z " fill="#C42710" transform="translate(108,62)"/>
<path d="M0 0 C0.66 0.33 1.32 0.66 2 1 C2 1.99 2 2.98 2 4 C2.66 4.33 3.32 4.66 4 5 C3.67 5.33 3.34 5.66 3 6 C2.76924918 7.34747084 2.58846937 8.70377565 2.4375 10.0625 C2.293125 11.361875 2.14875 12.66125 2 14 C1.01 14.33 0.02 14.66 -1 15 C-1 20.28 -1 25.56 -1 31 C-1.33 31 -1.66 31 -2 31 C-2.02690104 28.20826945 -2.04679053 25.41679652 -2.0625 22.625 C-2.07087891 21.8309375 -2.07925781 21.036875 -2.08789062 20.21875 C-2.11328125 14.2265625 -2.11328125 14.2265625 -1 12 C-0.34 12 0.32 12 1 12 C0.649375 10.7625 0.29875 9.525 -0.0625 8.25 C-0.95593273 5.096708 -1.00881294 3.13225836 0 0 Z " fill="#A13A2F" transform="translate(55,79)"/>
<path d="M0 0 C1.65 0 3.3 0 5 0 C7.4342342 4.8684684 6.47699661 12.07562522 5 17.1875 C4.67 18.115625 4.34 19.04375 4 20 C2.19588033 17.24075815 1.9872755 16.11027897 2.375 12.75 C2.58125 11.8425 2.7875 10.935 3 10 C3.66 10 4.32 10 5 10 C4.65555119 7.52733235 4.65555119 7.52733235 4 5 C3.34 4.67 2.68 4.34 2 4 C2 3.34 2 2.68 2 2 C1.34 2 0.68 2 0 2 C0 1.34 0 0.68 0 0 Z " fill="#CA270B" transform="translate(162,48)"/>
<path d="M0 0 C0.33 0 0.66 0 1 0 C1.06058594 0.92683594 1.12117188 1.85367188 1.18359375 2.80859375 C1.26738281 4.00613281 1.35117187 5.20367187 1.4375 6.4375 C1.51871094 7.63246094 1.59992187 8.82742187 1.68359375 10.05859375 C1.67656114 12.88570244 1.67656114 12.88570244 3 14 C3.23255814 18.53488372 3.23255814 18.53488372 2 21 C1.34 21 0.68 21 0 21 C0 25.62 0 30.24 0 35 C-0.33 35 -0.66 35 -1 35 C-1 29.39 -1 23.78 -1 18 C-0.34 17.67 0.32 17.34 1 17 C1 16.34 1 15.68 1 15 C0.34 14.67 -0.32 14.34 -1 14 C-0.67 9.38 -0.34 4.76 0 0 Z " fill="#FAE0D6" transform="translate(53,72)"/>
<path d="M0 0 C0.33 0 0.66 0 1 0 C1.33 3.96 1.66 7.92 2 12 C2.99 12.33 3.98 12.66 5 13 C4.67 17.62 4.34 22.24 4 27 C3.67 27 3.34 27 3 27 C2.67 23.04 2.34 19.08 2 15 C1.34 15 0.68 15 0 15 C0 10.05 0 5.1 0 0 Z " fill="#A0261C" transform="translate(54,95)"/>
<path d="M0 0 C-0.33 1.32 -0.66 2.64 -1 4 C-8.92 4.495 -8.92 4.495 -17 5 C-13.97546033 2.98364022 -11.36924652 1.96753498 -7.9375 0.8125 C-6.87402344 0.44769531 -5.81054688 0.08289063 -4.71484375 -0.29296875 C-2 -1 -2 -1 0 0 Z " fill="#923427" transform="translate(104,132)"/>
<path d="M0 0 C4.13621084 3.3810038 7.81316569 6.66590534 11 11 C8.03 11.66 5.06 12.32 2 13 C2 12.34 2 11.68 2 11 C3.32 10.67 4.64 10.34 6 10 C5.566875 9.44570312 5.13375 8.89140625 4.6875 8.3203125 C3.8521875 7.23363281 3.8521875 7.23363281 3 6.125 C2.443125 5.40570313 1.88625 4.68640625 1.3125 3.9453125 C0 2 0 2 0 0 Z " fill="#FCE9DF" transform="translate(94,120)"/>
<path d="M0 0 C0.33 0.66 0.66 1.32 1 2 C2.31782766 2.69681595 3.6546607 3.35790624 5 4 C6.59813064 4.99750869 8.18132597 6.0192805 9.75 7.0625 C10.94882813 7.85333984 10.94882813 7.85333984 12.171875 8.66015625 C13.07679687 9.32337891 13.07679687 9.32337891 14 10 C14 10.33 14 10.66 14 11 C8.25 11.125 8.25 11.125 6 10 C5.67 9.01 5.34 8.02 5 7 C3.35 6.67 1.7 6.34 0 6 C0 4.02 0 2.04 0 0 Z " fill="#8F2C21" transform="translate(68,126)"/>
<path d="M0 0 C4.03751264 1.21125379 5.65352533 2.52104972 8.125 5.9375 C8.53564006 8.74440672 8.36731297 11.07820695 8.125 13.9375 C6.91871992 11.60535852 5.9595262 9.44107861 5.125 6.9375 C1.61674013 3.52947613 -1.02062001 2.38907023 -5.875 1.9375 C-2.875 -0.0625 -2.875 -0.0625 0 0 Z " fill="#F7DFD3" transform="translate(153.875,46.0625)"/>
<path d="M0 0 C3.3 0.33 6.6 0.66 10 1 C10.33 1.99 10.66 2.98 11 4 C10.01 4 9.02 4 8 4 C8 4.66 8 5.32 8 6 C9.32 6.66 10.64 7.32 12 8 C7.97372024 8 6.26696313 6.26687238 3 4 C1.6808418 3.30570621 0.35350594 2.62469505 -1 2 C-0.67 1.34 -0.34 0.68 0 0 Z " fill="#AE3223" transform="translate(100,58)"/>
<path d="M0 0 C0.33 0.66 0.66 1.32 1 2 C3.31 1.34 5.62 0.68 8 0 C8.66 1.32 9.32 2.64 10 4 C7.31920844 5.75282525 6.13111361 6.01311136 2.875 5.6875 C0 5 0 5 -2 4 C-1.34 2.68 -0.68 1.36 0 0 Z " fill="#C9250D" transform="translate(102,54)"/>
<path d="M0 0 C0.66 0 1.32 0 2 0 C2.33 0.66 2.66 1.32 3 2 C3.99 2 4.98 2 6 2 C6.66 3.65 7.32 5.3 8 7 C4.8035914 8.06546953 2.34252724 8.07427838 -1 8 C-0.835 7.05125 -0.67 6.1025 -0.5 5.125 C0.0526635 2.19831099 0.0526635 2.19831099 0 0 Z " fill="#D0290C" transform="translate(128,24)"/>
<path d="M0 0 C3.74817794 0.28288135 6.07469317 1.39982467 9.3125 3.25 C9.3125 3.91 9.3125 4.57 9.3125 5.25 C1.11993982 5.88019694 1.11993982 5.88019694 -2.25 3.25 C-2.9615625 2.26 -2.9615625 2.26 -3.6875 1.25 C-2.6875 0.25 -2.6875 0.25 0 0 Z " fill="#F1D7D2" transform="translate(177.6875,151.75)"/>
<path d="M0 0 C0.33 0 0.66 0 1 0 C1.02687279 1.81242052 1.04633715 3.62495233 1.0625 5.4375 C1.07410156 6.44683594 1.08570313 7.45617187 1.09765625 8.49609375 C1 11 1 11 0 12 C-0.23427778 14.01594582 -0.41336124 16.038474 -0.5625 18.0625 C-0.64628906 19.16722656 -0.73007812 20.27195313 -0.81640625 21.41015625 C-0.87699219 22.26480469 -0.93757813 23.11945313 -1 24 C-3 22 -3 22 -3.1953125 19.1796875 C-3.17210937 18.08914062 -3.14890625 16.99859375 -3.125 15.875 C-3.10695312 14.77929688 -3.08890625 13.68359375 -3.0703125 12.5546875 C-3.04710937 11.71164063 -3.02390625 10.86859375 -3 10 C-2.01 10 -1.02 10 0 10 C0 6.7 0 3.4 0 0 Z " fill="#85241D" transform="translate(56,116)"/>
<path d="M0 0 C7.43438914 4.0678733 7.43438914 4.0678733 10 7 C10.721875 7.721875 11.44375 8.44375 12.1875 9.1875 C12.785625 9.785625 13.38375 10.38375 14 11 C11 12 11 12 7.8125 10.5625 C6.884375 10.046875 5.95625 9.53125 5 9 C5 7.68 5 6.36 5 5 C2.53673288 3.3553326 2.53673288 3.3553326 0 2 C0 1.34 0 0.68 0 0 Z " fill="#F9E7D7" transform="translate(85,50)"/>
<path d="M0 0 C4.62 0 9.24 0 14 0 C14.33 0.66 14.66 1.32 15 2 C11.7 2 8.4 2 5 2 C5 2.99 5 3.98 5 5 C3.02 5 1.04 5 -1 5 C-0.67 3.35 -0.34 1.7 0 0 Z " fill="#D42A0F" transform="translate(161,25)"/>
<path d="M0 0 C4.34555569 3.50987191 8.08992662 7.14566845 11.64453125 11.453125 C13.24144991 13.27554514 14.97409036 14.67536677 17 16 C16.34 16.33 15.68 16.66 15 17 C11.62824663 15.78562605 10.06856401 14.09379219 8.0625 11.1875 C6.22609712 8.61279774 4.41956924 6.30256571 2.125 4.125 C1.42375 3.42375 0.7225 2.7225 0 2 C0 1.34 0 0.68 0 0 Z " fill="#84261B" transform="translate(132,118)"/>
<path d="M0 0 C0.33 0 0.66 0 1 0 C1 8.25 1 16.5 1 25 C-0.65 25 -2.3 25 -4 25 C-3.34 23.68 -2.68 22.36 -2 21 C-1.34 21 -0.68 21 0 21 C0 14.07 0 7.14 0 0 Z " fill="#CD2515" transform="translate(186,43)"/>
<path d="M0 0 C1.99954746 -0.04254356 4.00041636 -0.04080783 6 0 C6.33 0.33 6.66 0.66 7 1 C9.58022142 1.28221172 12.16030185 1.44820197 14.75 1.62109375 C15.86375 1.80865234 15.86375 1.80865234 17 2 C17.33 2.66 17.66 3.32 18 4 C17.22914062 3.98839844 16.45828125 3.97679687 15.6640625 3.96484375 C14.66117188 3.95582031 13.65828125 3.94679688 12.625 3.9375 C11.12839844 3.92009766 11.12839844 3.92009766 9.6015625 3.90234375 C7.01567547 3.81993398 7.01567547 3.81993398 5 5 C5 4.34 5 3.68 5 3 C3.35 2.67 1.7 2.34 0 2 C0 1.34 0 0.68 0 0 Z " fill="#BC3424" transform="translate(81,24)"/>
<path d="M0 0 C1.65 0.33 3.3 0.66 5 1 C5 1.66 5 2.32 5 3 C4.34 3 3.68 3 3 3 C3 3.66 3 4.32 3 5 C0.36 5 -2.28 5 -5 5 C-5.33 4.01 -5.66 3.02 -6 2 C-6.99 1.67 -7.98 1.34 -9 1 C-6 1 -3 1 0 1 C0 0.67 0 0.34 0 0 Z " fill="#80160E" transform="translate(125,154)"/>
<path d="M0 0 C0.33 0.99 0.66 1.98 1 3 C0.37351563 2.97679687 -0.25296875 2.95359375 -0.8984375 2.9296875 C-1.71570313 2.91164062 -2.53296875 2.89359375 -3.375 2.875 C-4.59316406 2.84019531 -4.59316406 2.84019531 -5.8359375 2.8046875 C-8.21342243 2.78629949 -8.21342243 2.78629949 -10 5 C-10.99 4.67 -11.98 4.34 -13 4 C-12.34 4 -11.68 4 -11 4 C-10.67 2.68 -10.34 1.36 -10 0 C-3.15175097 -1.40077821 -3.15175097 -1.40077821 0 0 Z " fill="#811B0C" transform="translate(183,150)"/>
<path d="M0 0 C1.36511719 0.29197266 1.36511719 0.29197266 2.7578125 0.58984375 C3.45648438 0.74582031 4.15515625 0.90179687 4.875 1.0625 C4.545 2.0525 4.215 3.0425 3.875 4.0625 C-2.48397436 5.40766765 -2.48397436 5.40766765 -5.5625 3.75 C-7.125 2.0625 -7.125 2.0625 -7.125 0.0625 C-4.4030754 -1.2984623 -2.9418043 -0.64116248 0 0 Z " fill="#D4290A" transform="translate(87.125,26.9375)"/>
<path d="M0 0 C0.99 0 1.98 0 3 0 C3 0.66 3 1.32 3 2 C4.26457031 1.97679688 5.52914062 1.95359375 6.83203125 1.9296875 C8.4921816 1.91092874 10.15233833 1.89272865 11.8125 1.875 C13.06256836 1.84986328 13.06256836 1.84986328 14.33789062 1.82421875 C15.14033203 1.81777344 15.94277344 1.81132812 16.76953125 1.8046875 C17.50792236 1.79421387 18.24631348 1.78374023 19.00708008 1.77294922 C21 2 21 2 24 4 C16.08 3.67 8.16 3.34 0 3 C0 2.01 0 1.02 0 0 Z " fill="#FDF3E9" transform="translate(141,19)"/>
<path d="M0 0 C0.86625 0.4640625 0.86625 0.4640625 1.75 0.9375 C3.91340309 2.09252028 3.91340309 2.09252028 6.125 2.3125 C8 3 8 3 9.25 5.5625 C9.4975 6.366875 9.745 7.17125 10 8 C5.69159287 6.92289822 2.36423277 5.96052484 -1 3 C-0.67 2.01 -0.34 1.02 0 0 Z " fill="#C82514" transform="translate(137,58)"/>
<path d="M0 0 C1.32 0 2.64 0 4 0 C4 0.66 4 1.32 4 2 C6.31 2.33 8.62 2.66 11 3 C10.67 3.66 10.34 4.32 10 5 C10.66 5.45375 11.32 5.9075 12 6.375 C12.66 6.91125 13.32 7.4475 14 8 C14 8.66 14 9.32 14 10 C14.66 10 15.32 10 16 10 C15.67 10.66 15.34 11.32 15 12 C14.5875 11.62488281 14.175 11.24976563 13.75 10.86328125 C9.8838471 7.43724843 5.96083034 4.59373164 1.50390625 1.98046875 C1.00761719 1.65691406 0.51132813 1.33335938 0 1 C0 0.67 0 0.34 0 0 Z " fill="#AC3A2A" transform="translate(80,46)"/>
<path d="M0 0 C4.25209792 4.12324647 8.13635705 8.51282966 12 13 C11.01 13.33 10.02 13.66 9 14 C6.5 11.6875 6.5 11.6875 4 9 C4 8.01 4 7.02 4 6 C2.68 5.34 1.36 4.68 0 4 C0 2.68 0 1.36 0 0 Z " fill="#AC3225" transform="translate(67,48)"/>
<path d="M0 0 C3.0828148 0.72150985 4.56753075 1.99519248 6.38671875 4.55859375 C5.06671875 4.55859375 3.74671875 4.55859375 2.38671875 4.55859375 C2.38671875 3.89859375 2.38671875 3.23859375 2.38671875 2.55859375 C-1.90328125 2.22859375 -6.19328125 1.89859375 -10.61328125 1.55859375 C-6.69816462 -1.051484 -4.52813959 -0.53544424 0 0 Z " fill="#BD3C2F" transform="translate(127.61328125,21.44140625)"/>
<path d="M0 0 C1.46555316 0.73579212 2.92224487 1.48925126 4.375 2.25 C5.18710938 2.66765625 5.99921875 3.0853125 6.8359375 3.515625 C9.20801205 5.14267975 9.97094804 6.35386639 11 9 C8.03 8.505 8.03 8.505 5 8 C5 7.34 5 6.68 5 6 C3.03852126 4.61061923 1.03833424 3.2739589 -1 2 C-0.67 1.34 -0.34 0.68 0 0 Z " fill="#EED8CB" transform="translate(147,92)"/>
<path d="M0 0 C0 0.66 0 1.32 0 2 C-1.65 2 -3.3 2 -5 2 C-5.66 3.65 -6.32 5.3 -7 7 C-7.66 7 -8.32 7 -9 7 C-9 4.69 -9 2.38 -9 0 C-5.93109813 -1.53445094 -3.29905734 -0.54984289 0 0 Z " fill="#AF4030" transform="translate(60,25)"/>
<path d="M0 0 C0.8971875 0.5259375 0.8971875 0.5259375 1.8125 1.0625 C4.10813214 2.33304698 4.10813214 2.33304698 7 1 C8.89470816 0.9314505 10.7916834 0.91519628 12.6875 0.9375 C13.68136719 0.94652344 14.67523438 0.95554688 15.69921875 0.96484375 C16.83810547 0.98224609 16.83810547 0.98224609 18 1 C18 1.33 18 1.66 18 2 C16.20994059 2.36220266 14.41787943 2.71452469 12.625 3.0625 C11.12839844 3.35833984 11.12839844 3.35833984 9.6015625 3.66015625 C7 4 7 4 5 3 C5 3.66 5 4.32 5 5 C4.01 5.33 3.02 5.66 2 6 C0 3 0 3 0 0 Z " fill="#F3DAD7" transform="translate(55,153)"/>
<path d="M0 0 C4 0 4 0 6.25 2.1875 C7.61125 3.5796875 7.61125 3.5796875 9 5 C11.59648731 6.7890136 14.27673558 8.41199221 17 10 C16.67 10.66 16.34 11.32 16 12 C13.51704389 10.38055089 11.03864158 8.75480851 8.5625 7.125 C7.85544922 6.66480469 7.14839844 6.20460938 6.41992188 5.73046875 C5.74638672 5.28574219 5.07285156 4.84101562 4.37890625 4.3828125 C3.7557251 3.97434082 3.13254395 3.56586914 2.49047852 3.14501953 C1 2 1 2 0 0 Z " fill="#A33028" transform="translate(112,67)"/>
<path d="M0 0 C-0.99 0 -1.98 0 -3 0 C-3.33 0.99 -3.66 1.98 -4 3 C-5.77734375 3.765625 -5.77734375 3.765625 -7.9375 4.25 C-8.64777344 4.42015625 -9.35804688 4.5903125 -10.08984375 4.765625 C-12 5 -12 5 -14 4 C-14 3.34 -14 2.68 -14 2 C-12.42085985 1.46658816 -10.83645613 0.94874237 -9.25 0.4375 C-8.36828125 0.14746094 -7.4865625 -0.14257812 -6.578125 -0.44140625 C-3.92165684 -1.01697435 -2.52968894 -0.89248371 0 0 Z " fill="#F9E0CE" transform="translate(148,49)"/>
<path d="M0 0 C2.64 1.32 5.28 2.64 8 4 C8 4.99 8 5.98 8 7 C7.18789062 6.52433594 7.18789062 6.52433594 6.359375 6.0390625 C3.5842851 4.81692026 1.26791902 4.59056564 -1.75 4.375 C-2.73484375 4.30023437 -3.7196875 4.22546875 -4.734375 4.1484375 C-5.48203125 4.09945313 -6.2296875 4.05046875 -7 4 C-3.25 2 -3.25 2 -1 2 C-0.67 1.34 -0.34 0.68 0 0 Z " fill="#F8E4DA" transform="translate(180,20)"/>
<path d="M0 0 C7.39819005 0.49321267 7.39819005 0.49321267 10.375 3 C10.91125 3.66 11.4475 4.32 12 5 C12.66 5.33 13.32 5.66 14 6 C12.3125 6.75 12.3125 6.75 10 7 C8.32476605 5.67744688 6.65893182 4.34294481 5 3 C1.81237891 2.20309162 1.81237891 2.20309162 -1 2 C-0.67 1.34 -0.34 0.68 0 0 Z " fill="#F7DED8" transform="translate(99,154)"/>
<path d="M0 0 C0.99 0 1.98 0 3 0 C3 5.28 3 10.56 3 16 C2.01 16 1.02 16 0 16 C-0.33 15.01 -0.66 14.02 -1 13 C-0.67 12.34 -0.34 11.68 0 11 C0.66 11 1.32 11 2 11 C2 7.7 2 4.4 2 1 C1.34 0.67 0.68 0.34 0 0 Z " fill="#F6DAD1" transform="translate(53,110)"/>
<path d="M0 0 C0.33 0.99 0.66 1.98 1 3 C1.99 3.33 2.98 3.66 4 4 C4 4.66 4 5.32 4 6 C4.66 6 5.32 6 6 6 C7.38938077 7.96147874 8.7260411 9.96166576 10 12 C9.01 12 8.02 12 7 12 C5 9.6875 5 9.6875 3 7 C2.4225 6.484375 1.845 5.96875 1.25 5.4375 C0 4 0 4 0 0 Z " fill="#94362A" transform="translate(123,106)"/>
<path d="M0 0 C1 3 1 3 0.0625 5.1875 C-0.4634375 6.0846875 -0.4634375 6.0846875 -1 7 C-2.98 5.68 -4.96 4.36 -7 3 C-2.5 0 -2.5 0 0 0 Z " fill="#CB2710" transform="translate(96,48)"/>
<path d="M0 0 C1.0169313 2.65498232 1.13022151 3.69155375 0.00390625 6.359375 C-0.47175781 7.14828125 -0.94742188 7.9371875 -1.4375 8.75 C-1.91058594 9.54921875 -2.38367188 10.3484375 -2.87109375 11.171875 C-3.24363281 11.77515625 -3.61617187 12.3784375 -4 13 C-4.99 12.67 -5.98 12.34 -7 12 C-5.25 8.125 -5.25 8.125 -3 7 C-1.94647157 4.69034152 -0.94280904 2.3570226 0 0 Z " fill="#FDEFE3" transform="translate(169,120)"/>
<path d="M0 0 C0.28875 0.639375 0.5775 1.27875 0.875 1.9375 C1.82823451 4.15206079 1.82823451 4.15206079 4 5 C4.59355614 7.64860427 4.74209269 10.29197322 5 13 C4.01 12.67 3.02 12.34 2 12 C0.54237529 8.43691738 -0.4553105 4.81282651 -1 1 C-0.67 0.67 -0.34 0.34 0 0 Z " fill="#F6D1CC" transform="translate(184,74)"/>
<path d="M0 0 C1.32 0.66 2.64 1.32 4 2 C4 2.66 4 3.32 4 4 C4.99 4 5.98 4 7 4 C7.33 5.98 7.66 7.96 8 10 C6.87105124 9.06725891 5.74699124 8.12859878 4.625 7.1875 C3.99851562 6.66542969 3.37203125 6.14335938 2.7265625 5.60546875 C1 4 1 4 -1 1 C-0.67 0.67 -0.34 0.34 0 0 Z " fill="#F8E4D7" transform="translate(77,57)"/>
<path d="M0 0 C4.95 0 9.9 0 15 0 C15.33 0.66 15.66 1.32 16 2 C13.10441295 2.81788791 10.44535913 3.18892672 7.4375 3.25 C6.67308594 3.27578125 5.90867188 3.3015625 5.12109375 3.328125 C3 3 3 3 0 0 Z " fill="#FAECE5" transform="translate(161,156)"/>
<path d="M0 0 C3.46941546 0.45822468 6.67395049 0.89131683 10 2 C11.33106622 2.34227417 12.66400079 2.67751743 14 3 C4.58997722 4.51708428 4.58997722 4.51708428 0 2 C0 1.34 0 0.68 0 0 Z " fill="#FBF3E9" transform="translate(79,132)"/>
<path d="M0 0 C3.7952131 1.49097658 5.61042731 3.75700849 8 7 C7.01 7.495 7.01 7.495 6 8 C5.4121875 7.2265625 5.4121875 7.2265625 4.8125 6.4375 C3.9153125 5.7259375 3.9153125 5.7259375 3 5 C0.34533951 5.23043864 0.34533951 5.23043864 -2 6 C-1.34 4.02 -0.68 2.04 0 0 Z " fill="#FBE0D8" transform="translate(77,105)"/>
<path d="M0 0 C1.98 0 3.96 0 6 0 C6.66 1.32 7.32 2.64 8 4 C5.03 4 2.06 4 -1 4 C-0.67 2.68 -0.34 1.36 0 0 Z " fill="#7F1E17" transform="translate(79,151)"/>
<path d="M0 0 C2.31 0.33 4.62 0.66 7 1 C7 1.66 7 2.32 7 3 C7.66 3.33 8.32 3.66 9 4 C8.67 4.99 8.34 5.98 8 7 C6.66382648 6.02471263 5.3311249 5.04466681 4 4.0625 C3.2575 3.51722656 2.515 2.97195312 1.75 2.41015625 C1.1725 1.94480469 0.595 1.47945312 0 1 C0 0.67 0 0.34 0 0 Z " fill="#FCEEDE" transform="translate(141,57)"/>
<path d="M0 0 C4.04420651 1.77945087 7.46078487 4.39529673 11 7 C8.07068419 7.90995768 7.31409377 8.13461162 4.375 6.875 C1.69411485 4.75851173 0.96071759 3.23150461 0 0 Z " fill="#AC3A2B" transform="translate(134,53)"/>
<path d="M0 0 C-3.09902323 3.09902323 -5.39147385 2.9898579 -9.75 3.0625 C-10.8225 3.041875 -11.895 3.02125 -13 3 C-13.33 2.34 -13.66 1.68 -14 1 C-9.32798795 -0.20568053 -4.78503708 -0.09382426 0 0 Z " fill="#742920" transform="translate(178,154)"/>
<path d="M0 0 C-0.1875 2.8125 -0.1875 2.8125 -1 6 C-3.5625 7.875 -3.5625 7.875 -6 9 C-5.38983051 3.50847458 -5.38983051 3.50847458 -3.5625 1.125 C-2 0 -2 0 0 0 Z " fill="#AA1F09" transform="translate(179,103)"/>
<path d="M0 0 C-2.52788007 2.79872437 -4.20411134 4.45773019 -8 5 C-8 3.68 -8 2.36 -8 1 C-3.375 -1.125 -3.375 -1.125 0 0 Z " fill="#C92A0A" transform="translate(152,39)"/>
<path d="M0 0 C0.33 0.66 0.66 1.32 1 2 C0.01 2.495 0.01 2.495 -1 3 C-0.67 3.66 -0.34 4.32 0 5 C-3.68754757 4.50168276 -5.60490662 3.89932357 -8 1 C-5.29120665 -0.35439668 -2.99066732 -0.06501451 0 0 Z " fill="#9A1B0A" transform="translate(127,152)"/>
<path d="M0 0 C-1.7015625 0.680625 -1.7015625 0.680625 -3.4375 1.375 C-7.04721692 2.57095806 -7.04721692 2.57095806 -8 5 C-9.98 5 -11.96 5 -14 5 C-13.34 4.34 -12.68 3.68 -12 3 C-11.01 3 -10.02 3 -9 3 C-8.67 2.01 -8.34 1.02 -8 0 C-2.25 -1.125 -2.25 -1.125 0 0 Z " fill="#B64534" transform="translate(114,22)"/>
<path d="M0 0 C2.475 0.495 2.475 0.495 5 1 C5.33 2.32 5.66 3.64 6 5 C5.01 5.33 4.02 5.66 3 6 C2.34 5.67 1.68 5.34 1 5 C0.375 2.4375 0.375 2.4375 0 0 Z " fill="#EEFCFA" transform="translate(133,20)"/>
<path d="M0 0 C1.98 0 3.96 0 6 0 C5.67 1.32 5.34 2.64 5 4 C3.68 4.33 2.36 4.66 1 5 C0.67 3.35 0.34 1.7 0 0 Z " fill="#A01C0C" transform="translate(144,134)"/>
<path d="M0 0 C2.67927341 4.01891012 2.15601248 6.24161923 2 11 C1.01 11.495 1.01 11.495 0 12 C-1.16063604 7.74433453 -0.76173392 4.3164922 0 0 Z " fill="#A43C2E" transform="translate(172,109)"/>
<path d="M0 0 C0.66 0.33 1.32 0.66 2 1 C2 2.65 2 4.3 2 6 C1.01 6 0.02 6 -1 6 C-2.6875 4 -2.6875 4 -4 2 C-2.125 0.9375 -2.125 0.9375 0 0 Z " fill="#DECCC1" transform="translate(122,100)"/>
<path d="M0 0 C0.99 0 1.98 0 3 0 C3.80967438 2.91482778 4.21845993 4.46113217 3.0625 7.3125 C2.5365625 8.1478125 2.5365625 8.1478125 2 9 C1.34 9 0.68 9 0 9 C0 6.03 0 3.06 0 0 Z " fill="#A02410" transform="translate(181,69)"/>
<path d="M0 0 C0.33 0 0.66 0 1 0 C1.33 3.63 1.66 7.26 2 11 C0.68 11.33 -0.64 11.66 -2 12 C-1.34 8.04 -0.68 4.08 0 0 Z " fill="#CB351F" transform="translate(186,28)"/>
<path d="M0 0 C0.33 0 0.66 0 1 0 C1.33292585 4.24480464 1.43885872 6.35542625 -1 9.9375 C-1.66 10.618125 -2.32 11.29875 -3 12 C-2.25749403 7.91621717 -1.17076699 3.98060777 0 0 Z " fill="#972115" transform="translate(170,123)"/>
<path d="M0 0 C0 2.31 0 4.62 0 7 C-4.875 5.25 -4.875 5.25 -6 3 C-1.125 0 -1.125 0 0 0 Z " fill="#C02712" transform="translate(126,68)"/>
<path d="M0 0 C0.66 0.33 1.32 0.66 2 1 C2.4140625 3.06640625 2.4140625 3.06640625 2.625 5.5625 C2.69976562 6.38878906 2.77453125 7.21507813 2.8515625 8.06640625 C2.92503906 9.02353516 2.92503906 9.02353516 3 10 C2.01 10 1.02 10 0 10 C-1.231394 6.30581799 -0.64432764 3.7943739 0 0 Z " fill="#CA200D" transform="translate(178,65)"/>
<path d="M0 0 C6.25 3.125 6.25 3.125 8 8 C7.01 7.67 6.02 7.34 5 7 C5 6.34 5 5.68 5 5 C3.68 4.67 2.36 4.34 1 4 C1 3.34 1 2.68 1 2 C0.34 1.67 -0.32 1.34 -1 1 C-0.67 0.67 -0.34 0.34 0 0 Z " fill="#C82812" transform="translate(65,51)"/>
<path d="M0 0 C1.52519276 0.08937803 3.04681929 0.24537146 4.5625 0.4375 C5.80193359 0.59025391 5.80193359 0.59025391 7.06640625 0.74609375 C7.70449219 0.82988281 8.34257812 0.91367187 9 1 C7.68 1.33 6.36 1.66 5 2 C5 2.66 5 3.32 5 4 C3.35 4 1.7 4 0 4 C-0.33 3.01 -0.66 2.02 -1 1 C-0.67 0.67 -0.34 0.34 0 0 Z " fill="#BC391E" transform="translate(129,49)"/>
<path d="M0 0 C3.63 0.66 7.26 1.32 11 2 C11 2.33 11 2.66 11 3 C6.71 3 2.42 3 -2 3 C-1.34 2.67 -0.68 2.34 0 2 C0 1.34 0 0.68 0 0 Z " fill="#F6D8CF" transform="translate(109,19)"/>
<path d="M0 0 C1.14926266 0.95421808 2.29430541 1.91352045 3.4375 2.875 C4.07558594 3.40867187 4.71367188 3.94234375 5.37109375 4.4921875 C7 6 7 6 8 8 C4.82461668 7.65978036 3.97723135 6.97533396 1.75 4.5625 C0 2 0 2 0 0 Z " fill="#F2D1CB" transform="translate(94,120)"/>
<path d="M0 0 C3.33523252 1.38009621 5.18607951 2.84950652 7 6 C6.67 6.99 6.34 7.98 6 9 C4.99406757 7.8803014 3.9954151 6.7540588 3 5.625 C2.443125 4.99851562 1.88625 4.37203125 1.3125 3.7265625 C0 2 0 2 0 0 Z " fill="#F8E2DB" transform="translate(129,112)"/>
<path d="M0 0 C4.40114397 0.50298788 6.71195019 2.08772731 10 5 C5.2482602 4.56802365 3.07999946 3.67230705 0 0 Z " fill="#FAE2D8" transform="translate(158,101)"/>
<path d="M0 0 C4.455 0.99 4.455 0.99 9 2 C8.67 2.66 8.34 3.32 8 4 C7.4225 3.814375 6.845 3.62875 6.25 3.4375 C3.79307475 2.95976454 2.35602466 3.24270636 0 4 C0 2.68 0 1.36 0 0 Z " fill="#F5F2ED" transform="translate(119,76)"/>
<path d="M0 0 C0.66 0.33 1.32 0.66 2 1 C1.25 2.9375 1.25 2.9375 0 5 C-2.125 5.75 -2.125 5.75 -4 6 C-4.33 4.68 -4.66 3.36 -5 2 C-2.625 0.9375 -2.625 0.9375 0 0 Z " fill="#D62A10" transform="translate(180,26)"/>
<path d="M0 0 C3.14688078 1.57344039 4.79965407 4.27851951 7 7 C4 7 4 7 1.8125 5.1875 C0 3 0 3 0 0 Z " fill="#9E392F" transform="translate(88,112)"/>
<path d="M0 0 C1.98 0.99 1.98 0.99 4 2 C4 4.64 4 7.28 4 10 C1.16625119 6.79663178 0.4794463 4.21912747 0 0 Z " fill="#FCE8DC" transform="translate(168,106)"/>
<path d="M0 0 C1.32 0 2.64 0 4 0 C4.33 0.99 4.66 1.98 5 3 C3 4 3 4 0 4 C-0.99 4.495 -0.99 4.495 -2 5 C-1.125 1.125 -1.125 1.125 0 0 Z " fill="#A32817" transform="translate(76,102)"/>
<path d="M0 0 C1.17539996 0.92652701 2.34010577 1.86663387 3.5 2.8125 C4.1496875 3.33457031 4.799375 3.85664062 5.46875 4.39453125 C7 6 7 6 7 9 C6.67 8.34 6.34 7.68 6 7 C5.360625 6.731875 4.72125 6.46375 4.0625 6.1875 C1.31843292 4.60758259 0.93109876 2.9484794 0 0 Z " fill="#98312A" transform="translate(105,89)"/>
<path d="M0 0 C0.66 0.66 1.32 1.32 2 2 C1.625 5.125 1.625 5.125 1 8 C-0.32 7.34 -1.64 6.68 -3 6 C-2.34 6 -1.68 6 -1 6 C-0.67 4.02 -0.34 2.04 0 0 Z " fill="#B53F2A" transform="translate(161,64)"/>
<path d="M0 0 C0.33 0 0.66 0 1 0 C1 2.64 1 5.28 1 8 C-0.98 7.34 -2.96 6.68 -5 6 C-4.67 5.34 -4.34 4.68 -4 4 C-2.02 4.495 -2.02 4.495 0 5 C0 3.35 0 1.7 0 0 Z " fill="#813535" transform="translate(188,148)"/>
<path d="M0 0 C1.9375 0.375 1.9375 0.375 4 1 C4.33 1.66 4.66 2.32 5 3 C2.35261084 4.4606285 1.10551666 5 -2 5 C-2 4.01 -2 3.02 -2 2 C-1.34 2 -0.68 2 0 2 C0 1.34 0 0.68 0 0 Z " fill="#9F2C20" transform="translate(147,152)"/>
<path d="M0 0 C2.475 0.495 2.475 0.495 5 1 C4.67 1.99 4.34 2.98 4 4 C3.01 4.33 2.02 4.66 1 5 C0.67 3.35 0.34 1.7 0 0 Z " fill="#C22110" transform="translate(142,83)"/>
<path d="M0 0 C2.64 0.66 5.28 1.32 8 2 C8.33 3.32 8.66 4.64 9 6 C5.06326356 4.68775452 2.77280706 3.08089673 0 0 Z " fill="#932A17" transform="translate(131,80)"/>
<path d="M0 0 C1.9375 0.8125 1.9375 0.8125 4 2 C4.33 2.99 4.66 3.98 5 5 C4.01 5.33 3.02 5.66 2 6 C1.34 5.34 0.68 4.68 0 4 C0 2.68 0 1.36 0 0 Z " fill="#F6E0D7" transform="translate(72,51)"/>
<path d="M0 0 C5.53846154 -0.36923077 5.53846154 -0.36923077 7.875 1.5 C8.24625 1.995 8.6175 2.49 9 3 C7.35 3.33 5.7 3.66 4 4 C3.67 3.01 3.34 2.02 3 1 C2.01 0.67 1.02 0.34 0 0 Z " fill="#87251D" transform="translate(116,155)"/>
<path d="M0 0 C4.95 0.99 4.95 0.99 10 2 C10 2.33 10 2.66 10 3 C7.03 3 4.06 3 1 3 C0.67 2.01 0.34 1.02 0 0 Z " fill="#8A2318" transform="translate(150,134)"/>
<path d="M0 0 C1.65 1.65 3.3 3.3 5 5 C2 6 2 6 -1 5 C-0.67 3.35 -0.34 1.7 0 0 Z " fill="#F2E5D8" transform="translate(86,112)"/>
<path d="M0 0 C2.64 1.65 5.28 3.3 8 5 C7.34 5.66 6.68 6.32 6 7 C5.01 6.67 4.02 6.34 3 6 C3 5.01 3 4.02 3 3 C2.01 2.67 1.02 2.34 0 2 C0 1.34 0 0.68 0 0 Z " fill="#F6D6CE" transform="translate(136,84)"/>
<path d="M0 0 C0.66 1.32 1.32 2.64 2 4 C0.35 4 -1.3 4 -3 4 C-3 3.34 -3 2.68 -3 2 C-3.66 1.67 -4.32 1.34 -5 1 C-3 0 -3 0 0 0 Z " fill="#C92616" transform="translate(134,53)"/>
</svg>
